<?xml version="1.0" encoding="UTF-8" standalone="no"?>
<svg
   xmlns:dc="http://purl.org/dc/elements/1.1/"
   xmlns:cc="http://creativecommons.org/ns#"
   xmlns:rdf="http://www.w3.org/1999/02/22-rdf-syntax-ns#"
   xmlns:svg="http://www.w3.org/2000/svg"
   xmlns="http://www.w3.org/2000/svg"
   xmlns:sodipodi="http://sodipodi.sourceforge.net/DTD/sodipodi-0.dtd"
   xmlns:inkscape="http://www.inkscape.org/namespaces/inkscape"
   version="1.1"
   x="0px"
   y="0px"
   viewBox="0 0 1282.417 1052.2"
   xml:space="preserve"
   id="svg3231"
   sodipodi:docname="welcome.svg"
   width="1282.417"
   height="1052.2"
   inkscape:version="1.0.1 (c497b03c, 2020-09-10)"><metadata
   id="metadata3237"><rdf:RDF><cc:Work
       rdf:about=""><dc:format>image/svg+xml</dc:format><dc:type
         rdf:resource="http://purl.org/dc/dcmitype/StillImage" /></cc:Work></rdf:RDF></metadata><defs
   id="defs3235" /><sodipodi:namedview
   pagecolor="#ffffff"
   bordercolor="#666666"
   borderopacity="1"
   objecttolerance="10"
   gridtolerance="10"
   guidetolerance="10"
   inkscape:pageopacity="0"
   inkscape:pageshadow="2"
   inkscape:window-width="1440"
   inkscape:window-height="878"
   id="namedview3233"
   showgrid="false"
   inkscape:zoom="0.5075"
   inkscape:cx="536.26538"
   inkscape:cy="643.06306"
   inkscape:window-x="0"
   inkscape:window-y="0"
   inkscape:window-maximized="0"
   inkscape:current-layer="girl_waving" />
<style
   type="text/css"
   id="style2281">
	.st0{fill:#EC615B;}
	.st1{fill:#5222D0;}
	.st2{fill:#E8E8E8;}
	.st3{fill:#FFFFFF;}
	.st4{fill:#161616;}
	.st5{opacity:0.12;fill:#3F3F3F;}
	.st6{opacity:0.13;fill:#3F3F3F;}
	.st7{fill:#C64F4F;}
	.st8{opacity:0.19;fill:#3F3F3F;}
	.st9{opacity:0.11;fill:#3F3F3F;}
	.st10{opacity:0.1;fill:#3F3F3F;}
	.st11{opacity:0.14;fill:#3F3F3F;}
	.st12{opacity:0.2;fill:#3F3F3F;}
	.st13{opacity:0.16;fill:#3F3F3F;}
</style>
<g
   id="background"
   transform="translate(-145.50802,-59.399997)">
	<g
   id="details">
		<circle
   class="st0"
   cx="1033"
   cy="281.29999"
   r="16.299999"
   id="circle2283" />
		<circle
   class="st0"
   cx="1050.3"
   cy="244.8"
   r="7.5999999"
   id="circle2285" />
		<circle
   class="st0"
   cx="552"
   cy="145.7"
   r="7.8000002"
   id="circle2287" />
		<circle
   class="st0"
   cx="1062.4"
   cy="1053.2"
   r="13.2"
   id="circle2289" />
		<circle
   class="st0"
   cx="461.70001"
   cy="1105.5"
   r="6.0999999"
   id="circle2291" />
		<circle
   class="st0"
   cx="537.90002"
   cy="654.70001"
   r="6.3000002"
   id="circle2293" />
		<circle
   class="st1"
   cx="550.29999"
   cy="687"
   r="6.0999999"
   id="circle2295" />
		<circle
   class="st1"
   cx="543"
   cy="851.70001"
   r="11.4"
   id="circle2297" />
		<circle
   class="st1"
   cx="1023.9"
   cy="208"
   r="7.1999998"
   id="circle2299" />
		<circle
   class="st1"
   cx="750"
   cy="221.5"
   r="6.3000002"
   id="circle2301" />
		<circle
   class="st1"
   cx="188.3"
   cy="715.79999"
   r="4.8000002"
   id="circle2303" />
		<circle
   class="st1"
   cx="1045.7"
   cy="1087.4"
   r="12"
   id="circle2305" />
		<circle
   class="st1"
   cx="1174.2"
   cy="65.699997"
   r="6.3000002"
   id="circle2307" />
		<g
   id="g2313">
			<g
   id="g2311">
				<path
   class="st1"
   d="m 562.1,348.9 c -1,-6.2 -1.9,-18.6 8,-17.6 3.6,0.4 5.6,3.6 9.6,2.2 7.5,-2.6 5.8,-12.3 8.9,-17.9 5.1,-9 15,4.1 22.6,-0.2 2.5,-1.4 3.1,-4 3,-6.7 -0.2,-10.1 8.7,-9.4 16,-7.4 1.9,0.5 2.7,-2.4 0.8,-2.9 -7.4,-2 -19.7,-2.7 -20,8 -0.1,2.6 1.3,5.2 -2.5,6.8 -1.2,0.5 -3.2,-0.1 -4.3,-0.4 -2.6,-0.8 -4.9,-2.6 -7.6,-3.3 -3.5,-1 -6.9,-0.3 -9.3,2.5 -3,3.6 -2.9,8.5 -4.3,12.7 -1.5,4.5 -4.4,7.1 -9.3,4.9 -2,-0.9 -3.8,-1.7 -6.1,-1.4 -10.3,1.4 -9.8,13.9 -8.5,21.5 0.4,1.9 3.3,1.1 3,-0.8 z"
   id="path2309" />
			</g>
		</g>
		<g
   id="g2319">
			<g
   id="g2317">
				<path
   class="st1"
   d="m 573.9,354.7 c 0.8,-6.2 5.8,-8.9 11.6,-8.9 3.1,0 6.2,0.5 9.2,-0.6 6.8,-2.6 5.5,-10 7.1,-15.8 3,-11 16.9,-4.2 24.6,-6 5.2,-1.3 9.6,-6.5 7.4,-12 -0.7,-1.8 -3.6,-1 -2.9,0.8 3.4,8.3 -8.2,8.8 -13.1,8.2 -3.6,-0.4 -7.1,-1 -10.7,-0.1 -5.7,1.5 -7.9,5.7 -8.7,11.1 -0.7,5 -0.6,10.5 -7.1,11.3 -3.5,0.4 -7,-0.6 -10.5,0.2 -5.6,1.3 -9.2,6 -9.9,11.6 -0.3,2.1 2.7,2.1 3,0.2 z"
   id="path2315" />
			</g>
		</g>
		<g
   id="g2325">
			<g
   id="g2323">
				<path
   class="st1"
   d="m 780.5,109.1 c -3.5,4.4 -7.2,9.8 -5.5,15.7 1.4,4.8 5.2,6.6 9.8,6.3 2.7,-0.2 5.5,-0.9 7.7,1.5 1.7,1.8 0.6,5.6 0.1,7.6 -0.8,3.1 -2.3,6.1 -2,9.4 0.5,4.5 4.1,8 8.7,7 1.9,-0.4 1.1,-3.3 -0.8,-2.9 -8.7,2 -2.7,-12.5 -2.3,-16 0.3,-2.9 -0.2,-6.1 -2.4,-8.2 -2.2,-2.1 -4.9,-1.9 -7.7,-1.6 -4.4,0.5 -8.5,-0.9 -8.7,-6.2 -0.1,-4 2.7,-7.6 5.1,-10.6 1.4,-1.3 -0.8,-3.5 -2,-2 z"
   id="path2321" />
			</g>
		</g>
		<g
   id="g2331">
			<g
   id="g2329">
				<path
   class="st1"
   d="m 804.1,107.6 c -4.7,2 -7.7,6.9 -6.5,12 0.6,2.3 2,4.5 4,5.9 2.4,1.8 5.2,1.4 7.6,2.9 4.5,2.7 0.9,8 1.1,12.2 0.1,2.1 0.6,4 2.4,5.3 2.7,2.1 6.7,1.4 7.8,-2 0.6,-1.8 -2.3,-2.6 -2.9,-0.8 -3.8,-0.5 -5.1,-2.2 -4,-5.1 0.2,-1 0.4,-2 0.6,-3 0.2,-1 0.3,-2 0.3,-3 0,-2.1 -0.6,-4.3 -2.2,-5.8 -2.4,-2.2 -6.1,-1.3 -8.7,-3.1 -5.3,-3.7 -3.4,-10.7 2,-13 1.8,-0.7 0.2,-3.2 -1.5,-2.5 z"
   id="path2327" />
			</g>
		</g>
		<g
   id="g2337">
			<g
   id="g2335">
				<path
   class="st0"
   d="m 150.2,698.7 c -2.3,-3.6 -2.3,-8 0,-11.7 2.3,-3.6 5.5,-3.7 9.2,-5.1 5.1,-2.1 5.2,-7.4 4.9,-12.2 -0.1,-1.7 -0.2,-3.5 0.3,-5.2 1.3,-4 4.7,-2.9 7.8,-2.4 1.8,0.3 3.5,0 5,-1 1.9,-1.3 3.1,-3.6 3.7,-5.8 0.5,-1.8 0.6,-3.7 1,-5.5 0.2,-1.3 0.6,-2.5 1.2,-3.6 1.6,-2.5 3.5,-2.7 5.8,-0.5 0.5,1.9 3.4,1.1 2.9,-0.8 -1.8,-6.5 -9.8,-3.6 -11.8,1 -0.9,2.1 -1,4.4 -1.5,6.6 -0.3,1.3 -0.5,2.7 -1.2,3.9 -1.5,2.7 -4.3,2.2 -6.9,1.9 -3.1,-0.3 -5.5,-0.6 -7.5,2.3 -2.3,3.3 -1.7,7.2 -1.7,11 0.1,4.6 -0.9,6.4 -5.4,7.9 -1.8,0.6 -3.3,0.9 -4.9,2.1 -5.8,4.1 -7.3,12.6 -3.5,18.5 1,1.7 3.6,0.2 2.6,-1.4 z"
   id="path2333" />
			</g>
		</g>
		<g
   id="g2343">
			<g
   id="g2341">
				<path
   class="st0"
   d="m 162.7,705.6 c -4.2,-0.6 -2.6,-5.2 -0.7,-7 1.4,-1.3 3.3,-2.1 5.1,-3 2.2,-1.1 4.4,-2.4 6,-4.3 4.3,-5.4 -1.9,-12.6 4.1,-16.9 6,-4.2 22.1,-6.1 17.4,-17.3 -0.7,-1.8 -3.3,-0.2 -2.6,1.5 3.4,8.1 -13.1,10.5 -17.3,13.9 -1.5,1.2 -2.8,2.8 -3.4,4.7 -1.2,4.2 2.3,8.5 -0.8,12.5 -3.6,4.4 -11.3,4.4 -13.1,10.6 -1.1,3.5 0.8,7.7 4.6,8.3 1.8,0.2 2.6,-2.7 0.7,-3 z"
   id="path2339" />
			</g>
		</g>
		<g
   id="g2349">
			<g
   id="g2347">
				<path
   class="st0"
   d="m 1258.9,473.2 c -1.3,-2.3 -1.1,-4.8 0.3,-7 2.2,-3.2 4.8,-2.5 8.2,-2.2 2.3,0.2 4.4,0.7 6.6,-0.6 3.9,-2.4 3.3,-7.4 4,-11.2 1.6,-8.9 9.3,-0.8 14.5,-3.6 1.9,-1 2.6,-2.9 3,-4.9 0.7,-3.9 0.9,-15.5 8.4,-10.8 1.6,1 3.2,-1.6 1.5,-2.6 -6.7,-4.1 -12.1,2.7 -12.7,9 -0.4,3.6 0,7.1 -4.8,6.6 -1.7,-0.2 -3.4,-1.1 -5.1,-1.3 -2.7,-0.3 -5.1,0.5 -6.6,2.9 -1.7,2.8 -1.1,6.3 -1.8,9.3 -1.5,6.8 -7.3,3 -12,3.8 -6.3,1.1 -9.2,8.7 -6.2,14 1,1.8 3.6,0.3 2.7,-1.4 z"
   id="path2345" />
			</g>
		</g>
		<g
   id="g2355">
			<g
   id="g2353">
				<path
   class="st0"
   d="m 1273.8,479.5 c -1.7,-4.6 3.6,-9.7 8.2,-7.3 0.6,0.3 1.4,0.3 1.8,-0.2 2.3,-2.5 2.9,-5.4 3.9,-8.6 1.8,-5.8 6.1,-6.6 11.3,-8.2 5.1,-1.6 10.8,-5.8 8.7,-11.8 -0.7,-1.8 -3.6,-1 -2.9,0.8 2.9,7.9 -11.3,8.5 -15.5,11.4 -5.1,3.6 -3.6,10.1 -7.5,14.3 0.6,-0.1 1.2,-0.2 1.8,-0.2 -6.7,-3.5 -15.2,3.4 -12.6,10.7 0.6,1.7 3.5,1 2.8,-0.9 z"
   id="path2351" />
			</g>
		</g>
		<g
   id="g2361">
			<g
   id="g2359">
				<path
   class="st0"
   d="m 869.9,505.7 c 0.2,0 2.4,5.4 3.3,6.1 1.4,1.1 3.1,1.2 4.8,0.9 3,-0.5 4.9,-2.7 7.5,-4.1 5.6,-3.2 5.6,2.3 7.8,5.4 2.5,3.7 5.2,1.9 8.1,0.1 1.9,-1.2 3.7,-2 5.4,-0.3 0.9,0.9 1.5,2.4 2.2,3.5 1.1,1.6 2.3,2.9 4.1,3.7 1.7,0.8 3.3,-1.8 1.5,-2.6 -4.1,-1.8 -4.6,-8.6 -9.5,-9.3 -2.3,-0.3 -3.3,1 -5.1,2 -2.2,1.3 -3.5,2.2 -4.9,-0.3 -0.6,-1 -0.7,-2.4 -1.4,-3.4 -3.2,-5.3 -8.2,-2.4 -12.2,0.2 -0.7,0.5 -1.4,1 -2.2,1.4 -1.7,-0.5 -3.5,-1 -5.2,-1.5 -0.7,-0.7 -0.7,-2.4 -1.3,-3.3 -1,-1.4 -2,-1.8 -3.6,-1.5 -2,0.4 -1.2,3.3 0.7,3 z"
   id="path2357" />
			</g>
		</g>
		<g
   id="g2367">
			<g
   id="g2365">
				<path
   class="st0"
   d="m 893.4,496.1 c 3,-4.7 9.9,5.1 12.7,6.3 1.7,0.7 3.3,0.7 5.1,0.2 0.8,-0.2 1.5,-0.6 2.2,-0.9 2.7,-1.1 5,-0.4 7.2,1.5 3.2,2.7 4.1,6.3 8.7,7.3 2.7,0.6 5.2,-0.2 6.4,-2.8 0.8,-1.7 -1.8,-3.3 -2.6,-1.5 -2.8,6 -10.5,-5.8 -12.5,-7.1 -3.7,-2.4 -6,-0.4 -9.7,0.4 -5.9,1.2 -7.8,-5.4 -12.7,-7 -2.9,-1 -5.7,-0.5 -7.3,2.2 -1.2,1.6 1.4,3.1 2.5,1.4 z"
   id="path2363" />
			</g>
		</g>
	</g>
	<g
   id="background_grey">
		<g
   id="g2374">
			<g
   id="g2372">
				<path
   class="st2"
   d="m 1267.1,670.9 c 53.1,0 106.2,0 159.4,0 1.9,0 1.9,-3 0,-3 -53.1,0 -106.2,0 -159.4,0 -1.9,0 -1.9,3 0,3 z"
   id="path2370" />
			</g>
		</g>
		<g
   id="g2380">
			<g
   id="g2378">
				<path
   class="st2"
   d="m 1310.6,670.2 c 0,15.5 0,30.9 0,46.4 0,1.9 3,1.9 3,0 0,-15.5 0,-30.9 0,-46.4 0,-1.9 -3,-1.9 -3,0 z"
   id="path2376" />
			</g>
		</g>
		<g
   id="g2386">
			<g
   id="g2384">
				<path
   class="st2"
   d="m 1384.8,668.7 c 0,-21.6 0,-43.2 0,-64.8 0,-1.9 -3,-1.9 -3,0 0,21.6 0,43.2 0,64.8 0,2 3,2 3,0 z"
   id="path2382" />
			</g>
		</g>
		<g
   id="g2392">
			<g
   id="g2390">
				<path
   class="st2"
   d="m 1349.5,605.1 c 20.1,0 40.2,0 60.3,0 1.9,0 1.9,-3 0,-3 -20.1,0 -40.2,0 -60.3,0 -1.9,0 -1.9,3 0,3 z"
   id="path2388" />
			</g>
		</g>
		<g
   id="g2398">
			<g
   id="g2396">
				<path
   class="st2"
   d="m 1310,245 c 0,18.7 0,37.4 0,56 0,1.9 3,1.9 3,0 0,-18.7 0,-37.4 0,-56 0,-1.9 -3,-1.9 -3,0 z"
   id="path2394" />
			</g>
		</g>
		<g
   id="g2404">
			<g
   id="g2402">
				<path
   class="st2"
   d="m 1263.3,305.3 c 36.1,0 72.1,0 108.2,0 1.9,0 1.9,-3 0,-3 -36.1,0 -72.1,0 -108.2,0 -2,0 -2,3 0,3 z"
   id="path2400" />
			</g>
		</g>
		<g
   id="g2410">
			<g
   id="g2408">
				<path
   class="st2"
   d="m 1370.5,304.9 c 0,12.4 0,24.8 0,37.2 0,1.9 3,1.9 3,0 0,-12.4 0,-24.8 0,-37.2 0,-1.9 -3,-1.9 -3,0 z"
   id="path2406" />
			</g>
		</g>
		<g
   id="g2416">
			<g
   id="g2414">
				<path
   class="st2"
   d="m 366.2,186.7 c 35.3,0 70.7,0 106,0 1.9,0 1.9,-3 0,-3 -35.3,0 -70.7,0 -106,0 -1.9,0 -2,3 0,3 z"
   id="path2412" />
			</g>
		</g>
		<g
   id="g2422">
			<g
   id="g2420">
				<path
   class="st2"
   d="m 467.8,186.4 c 0,9.6 0,19.2 0,28.8 0,1.9 3,1.9 3,0 0,-9.6 0,-19.2 0,-28.8 0,-2 -3,-2 -3,0 z"
   id="path2418" />
			</g>
		</g>
		<g
   id="g2428">
			<g
   id="g2426">
				<path
   class="st2"
   d="m 435.7,184 c 0,-15.4 0,-30.7 0,-46.1 0,-1.9 -3,-1.9 -3,0 0,15.4 0,30.7 0,46.1 0,2 3,2 3,0 z"
   id="path2424" />
			</g>
		</g>
		<g
   id="g2434">
			<g
   id="g2432">
				<path
   class="st2"
   d="m 156.5,494.9 c 24.4,0 48.8,0 73.2,0 1.9,0 1.9,-3 0,-3 -24.4,0 -48.8,0 -73.2,0 -1.9,0 -1.9,3 0,3 z"
   id="path2430" />
			</g>
		</g>
		<g
   id="g2440">
			<g
   id="g2438">
				<path
   class="st2"
   d="m 201.2,464.8 c 0,9 0,18 0,27 0,1.9 3,1.9 3,0 0,-9 0,-18 0,-27 0,-1.9 -3,-1.9 -3,0 z"
   id="path2436" />
			</g>
		</g>
		<g
   id="g2446">
			<g
   id="g2444">
				<path
   class="st2"
   d="m 183.6,466.3 c 13,0 26,0 39,0 1.9,0 1.9,-3 0,-3 -13,0 -26,0 -39,0 -2,0 -2,3 0,3 z"
   id="path2442" />
			</g>
		</g>
		<g
   id="g2452">
			<g
   id="g2450">
				<path
   class="st2"
   d="m 624,1096.8 c 32.6,0 65.2,0 97.8,0 1.9,0 1.9,-3 0,-3 -32.6,0 -65.2,0 -97.8,0 -2,0 -2,3 0,3 z"
   id="path2448" />
			</g>
		</g>
		<g
   id="g2458">
			<g
   id="g2456">
				<path
   class="st2"
   d="m 684.2,1093.8 c 0,-7 0,-14 0,-21.1 0,-1.9 -3,-1.9 -3,0 0,7 0,14 0,21.1 0,2 3,2 3,0 z"
   id="path2454" />
			</g>
		</g>
		<g
   id="g2464">
			<g
   id="g2462">
				<path
   class="st2"
   d="m 675.1,1072.8 c 13.5,0 27.1,0 40.6,0 1.9,0 1.9,-3 0,-3 -13.5,0 -27.1,0 -40.6,0 -1.9,0 -1.9,3 0,3 z"
   id="path2460" />
			</g>
		</g>
		<g
   id="g2470">
			<g
   id="g2468">
				<path
   class="st2"
   d="m 158.8,1044.2 c 32.6,0 65.2,0 97.8,0 1.9,0 1.9,-3 0,-3 -32.6,0 -65.2,0 -97.8,0 -1.9,0 -1.9,3 0,3 z"
   id="path2466" />
			</g>
		</g>
		<g
   id="g2476">
			<g
   id="g2474">
				<path
   class="st2"
   d="m 204,1005 c 0,11.5 0,23.1 0,34.6 0,1.9 3,1.9 3,0 0,-11.5 0,-23.1 0,-34.6 0,-1.9 -3,-1.9 -3,0 z"
   id="path2472" />
			</g>
		</g>
		<g
   id="g2482">
			<g
   id="g2480">
				<path
   class="st2"
   d="m 204,1000.5 c -13,0 -26.1,0 -39.1,0 -1.9,0 -1.9,3 0,3 13,0 26.1,0 39.1,0 1.9,0 1.9,-3 0,-3 z"
   id="path2478" />
			</g>
		</g>
		<g
   id="g2488">
			<g
   id="g2486">
				<path
   class="st2"
   d="m 1245.9,956.2 c -3.3,-3.3 -2.5,-9.7 2.6,-10.8 2.7,-0.6 5.3,1.1 7.9,1.4 2,0.3 4.1,0.1 5.4,-1.7 2,-2.6 0.4,-5.6 0.3,-8.5 -0.2,-9.1 10.6,-8.5 16,-5.3 1.2,0.7 2.5,-0.5 2.2,-1.7 -2.6,-12.5 11.7,-21.1 21.5,-12.8 1.5,1.2 3.6,-0.9 2.1,-2.1 -12.1,-10.2 -29.8,0.2 -26.5,15.8 0.7,-0.6 1.5,-1.1 2.2,-1.7 -4.6,-2.8 -10.5,-4.2 -15.4,-1.1 -1.8,1.1 -3.4,2.8 -4.2,4.8 -0.6,1.4 -0.9,2.7 -0.8,4.2 0.1,2.7 1,2.5 -1,5.1 -2.2,2.9 -2.4,1.6 -5.5,0.9 -1.1,-0.3 -2.1,-0.5 -3.3,-0.4 -2.5,0.1 -4.8,1.3 -6.4,3.1 -3.5,3.9 -2.6,9.4 0.9,12.9 1.3,1.4 3.4,-0.7 2,-2.1 z"
   id="path2484" />
			</g>
		</g>
		<g
   id="g2494">
			<g
   id="g2492">
				<path
   class="st2"
   d="m 1265.4,959.2 c -1.1,-9.1 13.8,-9.2 18,-15.5 1.1,-1.6 1.5,-3.4 2.2,-5.1 1.3,-3.1 3.6,-5.1 7,-6 5.5,-1.4 11.2,1.1 16.2,3.2 1.8,0.7 2.6,-2.2 0.8,-2.9 -9.2,-3.8 -21.6,-6.7 -26.7,4.5 -1.8,4 -2.4,6.2 -6.6,8.3 -2.5,1.2 -5.1,1.9 -7.5,3.3 -3.8,2.2 -6.8,5.6 -6.3,10.2 0.2,1.9 3.2,1.9 2.9,0 z"
   id="path2490" />
			</g>
		</g>
		<g
   id="g2500">
			<g
   id="g2498">
				<path
   class="st2"
   d="m 835.3,668.4 c 2,5 4,10.1 6,15.1 0.2,-0.6 0.5,-1.1 0.7,-1.7 -1.1,0.7 -2.2,1.4 -3.3,2.2 -1.7,-4 -1,-5 2.2,-3.2 1.9,1.2 2.8,3.8 3.2,5.9 0.9,4.8 -0.1,9.8 -1.7,14.4 -0.4,1.2 0.8,2 1.8,1.8 6,-1.2 8.4,6 7.2,10.5 -0.9,3.3 -2.7,6.2 -4.5,9.1 -1,1.6 1.6,3.1 2.6,1.5 3.2,-5 6.9,-11.2 4.7,-17.4 -1.7,-4.6 -5.9,-7.5 -10.8,-6.6 0.6,0.6 1.2,1.2 1.8,1.8 2,-5.8 3.3,-13.1 0.8,-19 -1.7,-3.9 -5.6,-6.9 -10,-5.6 -3.4,1 -5.1,4.4 -3.5,7.7 2.7,5.5 7.4,1.8 10.9,-0.5 0.5,-0.3 0.9,-1.1 0.7,-1.7 -2,-5 -4,-10.1 -6,-15.1 -0.6,-1.7 -3.5,-1 -2.8,0.8 z"
   id="path2496" />
			</g>
		</g>
		<g
   id="g2506">
			<g
   id="g2504">
				<path
   class="st2"
   d="m 243.9,195.3 c -1.9,-4.8 4.5,-6.1 7.5,-4.4 2.3,1.3 3.8,3.6 5.2,5.7 1.3,1.9 2.7,4 3.4,6.2 0.8,1.9 0.7,3.7 -0.3,5.5 -3.5,1.6 -5.3,1.2 -5.4,-1.1 -0.9,-3.3 2.6,-5.5 5.6,-5.4 3.1,0.1 6,1.9 8.1,4.1 3.6,3.8 4.9,8.8 4.4,13.9 0.9,-0.3 1.9,-0.5 2.8,-0.8 -2,-2.9 -0.1,-6 2.6,-7.5 2.3,-1.2 4.9,-0.9 7.1,0.3 3.6,1.9 6.1,5.4 8.4,8.6 1.1,1.6 3.7,0.1 2.6,-1.5 -3.8,-5.3 -9.5,-12.7 -17,-11 -5.5,1.2 -9.9,7.6 -6.3,12.6 0.9,1.3 2.6,0.7 2.8,-0.8 0.9,-9.5 -6.1,-22.5 -17.3,-20.9 -4,0.6 -6.9,3.4 -6.9,7.5 0,3.2 2,6.5 5.4,6.7 4,0.3 6.7,-3.6 6.9,-7.2 0.3,-5 -3.6,-10.4 -6.6,-14.1 -2.8,-3.3 -6.9,-6.1 -11.3,-4.4 -3.6,1.3 -6,4.9 -4.5,8.6 0.6,2 3.5,1.2 2.8,-0.6 z"
   id="path2502" />
			</g>
		</g>
		<g
   id="g2512">
			<g
   id="g2510">
				<path
   class="st2"
   d="m 770.7,342 c -4.2,-2.5 -1.2,-9.9 3.5,-6.8 4.5,3 -1.5,8.1 -4.4,4.6 -1.2,-1.5 -3.3,0.6 -2.1,2.1 2.3,2.8 6.7,2.6 9.3,0.3 3,-2.7 2.2,-7.1 -0.9,-9.3 -3.1,-2.2 -7.6,-1.8 -9.5,1.8 -1.9,3.4 -0.6,8 2.7,9.9 1.5,0.9 3,-1.6 1.4,-2.6 z"
   id="path2508" />
			</g>
		</g>
		<g
   id="g2518">
			<g
   id="g2516">
				<path
   class="st2"
   d="m 1089.3,123.3 c -2.2,-3.1 1.6,-7.8 5.1,-6.4 -0.3,-0.2 -0.6,-0.5 -0.9,-0.7 1.9,3.3 -0.9,7.8 -4.6,7.6 0.5,0.4 1,0.7 1.4,1.1 -0.6,-1.7 -1.3,-3.5 -1.9,-5.2 -0.7,-1.8 -3.6,-1 -2.9,0.8 0.6,1.7 1.3,3.5 1.9,5.2 0.2,0.7 0.7,1.1 1.4,1.1 3.2,0.2 6,-1.8 7.4,-4.6 1.1,-2.2 1.7,-6.8 -1,-8.2 -5.9,-2.9 -12,5.9 -8.5,10.8 1.1,1.6 3.7,0.1 2.6,-1.5 z"
   id="path2514" />
			</g>
		</g>
		<g
   id="g2524">
			<g
   id="g2522">
				<path
   class="st2"
   d="m 1170.7,272 c -0.5,-2.3 1.2,-4.8 3.5,-5.3 2.1,-0.4 4,1.3 4.5,3.2 1.3,4.5 -4.6,6.6 -7.4,3.5 -1.3,-1.4 -3.4,0.7 -2.1,2.1 5.2,5.8 15.2,0.1 12,-7.3 -1.4,-3.3 -4.9,-5.4 -8.4,-4.3 -3.7,1.2 -5.9,5.1 -5.1,8.9 0.6,1.9 3.5,1.1 3,-0.8 z"
   id="path2520" />
			</g>
		</g>
		<g
   id="g2530">
			<g
   id="g2528">
				<path
   class="st2"
   d="m 846.1,1099.7 c -3.8,-1.8 -3.5,-7 0,-9 3.4,-1.9 6.6,-0.2 9.7,1.2 2.6,1.2 5.6,2.3 7.9,0 2.1,-2 1.7,-5.1 1.8,-7.7 0.4,-10.1 10.2,-8.1 16.9,-5.6 1.8,0.7 2.6,-2.2 0.8,-2.9 -5.9,-2.3 -14.1,-4.5 -18.8,1.3 -1.4,1.7 -1.8,3.7 -1.9,5.8 -0.1,1.4 0.5,4.5 -0.3,5.8 -2.2,3.3 -5.2,0.3 -7.5,-0.7 -4.4,-1.9 -10.7,-1.4 -13.4,3.2 -2.3,3.9 -0.9,9.2 3.2,11.1 1.8,0.9 3.3,-1.7 1.6,-2.5 z"
   id="path2526" />
			</g>
		</g>
	</g>
	<g
   id="flower">
		<g
   id="g2537">
			<g
   id="g2535">
				<path
   class="st2"
   d="m 894.5,864 c -3,36.7 -1.4,73.5 4.8,109.8 0.3,1.9 3.2,1.1 2.9,-0.8 -6.1,-36 -7.7,-72.6 -4.7,-109 0.2,-1.9 -2.8,-1.9 -3,0 z"
   id="path2533" />
			</g>
		</g>
		<g
   id="g2543">
			<g
   id="g2541">
				<path
   class="st2"
   d="m 896.5,866.3 c 15.6,5.4 31.7,9 48.1,10.8 15.4,1.6 33.1,3.3 47.9,-2.5 1.8,-0.7 1,-3.6 -0.8,-2.9 -14.4,5.7 -31.9,4 -47.1,2.4 -16.1,-1.7 -32,-5.4 -47.3,-10.7 -1.9,-0.7 -2.6,2.2 -0.8,2.9 z"
   id="path2539" />
			</g>
		</g>
		<g
   id="g2549">
			<g
   id="g2547">
				<path
   class="st2"
   d="m 920.3,870.4 c -5.2,-8.1 -9.5,-16.7 -12.5,-25.9 -1.4,-4.4 -2.6,-8.8 -3.5,-13.3 -0.5,-2.7 -1,-5.4 -1.3,-8.1 0,-0.3 -1.1,-7.4 1,-6.4 1,0.5 2.7,-0.4 2.2,-1.7 -5.5,-13.9 -8.5,-28.5 -8.8,-43.5 -0.5,0.5 -1,1 -1.5,1.5 0.8,0.3 1.5,0.6 2.3,0.9 1,1.2 2.9,-0.1 2.5,-1.5 -2,-6.4 -3.3,-13 -3.7,-19.8 -0.1,-1.6 0.2,-19.6 1.3,-19.3 1.2,0.3 2,-0.8 1.8,-1.8 -1.9,-11.3 -2.8,-22.8 -2.3,-34.2 0.2,-5.7 0.7,-11.3 1.6,-16.9 0.8,-5.1 1.2,-11.3 5.2,-15 -0.8,-0.1 -1.6,-0.2 -2.4,-0.3 8.4,15.8 13.1,33.1 17.4,50.3 4.2,16.9 7.9,34 11.1,51.2 6.5,35.5 10.6,71.4 12.4,107.5 0.1,1.9 3.1,1.9 3,0 -1.8,-36.3 -5.9,-72.5 -12.5,-108.3 -3.3,-17.8 -7.1,-35.5 -11.5,-53.1 -4.3,-16.9 -9,-33.7 -17.3,-49.2 -0.5,-0.9 -1.7,-0.9 -2.4,-0.3 -3.4,3.1 -4.4,7.2 -5.2,11.5 -1.1,6.1 -1.9,12.4 -2.3,18.6 -0.8,13 0,26 2.2,38.9 0.6,-0.6 1.2,-1.2 1.8,-1.8 -5.8,-1.6 -5.1,10.9 -5.2,13.7 -0.4,9.8 1.1,19.6 4,29 0.8,-0.5 1.7,-1 2.5,-1.5 -1.3,-1.5 -2.4,-2 -4.4,-1.8 -0.8,0.1 -1.5,0.6 -1.5,1.5 0.3,15.2 3.3,30.1 8.9,44.3 0.7,-0.6 1.5,-1.1 2.2,-1.7 -10,-4.8 -4.2,17.8 -3.4,21.2 3,13 8.4,25.4 15.6,36.6 1.2,1.8 3.8,0.3 2.7,-1.3 z"
   id="path2545" />
			</g>
		</g>
		<g
   id="g2555">
			<g
   id="g2553">
				<path
   class="st2"
   d="m 936.2,770.5 c -0.9,-6.4 -1.1,-12.9 -0.3,-19.3 0.2,-1.6 4,-20.4 5.9,-19.6 1,0.5 2.2,-0.1 2.3,-1.3 0.6,-12.8 4.6,-24.2 9.3,-36 4.7,-11.7 9.3,-23 17.1,-33.1 -0.7,0 -1.4,0 -2.1,0 5.7,6.5 5,16.4 5.3,24.5 0.4,9.1 0.7,18.2 0.8,27.3 0.2,17.9 -0.1,35.8 -0.9,53.7 -1.7,36.6 -5.8,73.1 -12,109.2 -0.3,1.9 2.6,2.7 2.9,0.8 6.5,-37.6 10.6,-75.7 12.3,-113.9 0.8,-19.2 1,-38.4 0.6,-57.6 -0.2,-9.6 -0.4,-19.2 -1.1,-28.8 -0.4,-6.3 -1.4,-12.5 -5.8,-17.4 -0.5,-0.6 -1.6,-0.6 -2.1,0 -7.7,10 -12.5,21 -17.1,32.7 -5.1,12.6 -9.4,24.8 -10.1,38.6 0.8,-0.4 1.5,-0.9 2.3,-1.3 -6.1,-2.7 -8.1,10.3 -8.9,13.8 -2.2,9.4 -2.4,18.9 -1,28.4 -0.1,2 2.8,1.2 2.6,-0.7 z"
   id="path2551" />
			</g>
		</g>
		<g
   id="g2561">
			<g
   id="g2559">
				<path
   class="st2"
   d="m 900.7,976.3 c 31.3,10.1 65.2,9.6 96.2,-1.4 1.8,-0.6 1,-3.5 -0.8,-2.9 -30.5,10.8 -63.8,11.3 -94.6,1.4 -1.9,-0.6 -2.7,2.3 -0.8,2.9 z"
   id="path2557" />
			</g>
		</g>
		<g
   id="g2567">
			<g
   id="g2565">
				<path
   class="st2"
   d="m 992.1,873.6 c 1.2,16.2 2.5,32.4 3.6,48.6 1.1,16.5 1.5,33.2 -1.2,49.6 -0.3,1.9 2.6,2.7 2.9,0.8 2.7,-16.1 2.5,-32.3 1.4,-48.5 -1.1,-16.8 -2.4,-33.7 -3.7,-50.5 -0.1,-1.9 -3.1,-1.9 -3,0 z"
   id="path2563" />
			</g>
		</g>
	</g>
</g>
<g
   id="window"
   transform="translate(-145.50802,-59.399997)">
	<path
   class="st3"
   d="m 458.4,1002 c 20.4,-10.9 40.9,-21.8 61.3,-32.7 9.6,1.6 22.8,3.7 38.6,5.9 31.6,4.4 82.5,11.5 146.9,13.4 64.4,1.9 112.7,-2.2 131.1,-4 44.3,-4.2 71.1,-9.9 93,-15.8 19.9,-5.4 36.3,-11.3 48,-15.8 9.6,3.2 20.3,7.5 31.7,13.4 6.5,3.4 12.5,6.9 17.8,10.4 -18.8,5.4 -44.1,12.3 -74.2,19.3 -63.4,14.8 -112,21.8 -122.2,23.3 -58.3,8.3 -141.4,20 -245.9,7.9 -32.5,-3.9 -75.8,-11 -126.1,-25.3 z"
   id="path2571" />
	<path
   class="st4"
   d="m 457.3,1002.1 c 0.5,4.2 1.1,8.3 1.6,12.5 7.5,2.1 18.5,5.1 32.1,8.1 26,5.8 52.4,9.8 86.9,12.5 127.4,10 229.2,1.1 229.2,1.1 50.9,-4.5 100.3,-9.1 164.1,-27.7 24,-7 43.6,-14.1 57.6,-19.6 -1.1,-4.7 -2.2,-9.4 -3.3,-14.1 -3.9,1.6 -9.7,3.9 -16.8,6.5 -48.2,17.6 -87.9,23.4 -123.3,27.7 -77.8,9.6 -116.7,14.3 -173.8,15.2 -65,1.1 -152.2,-2.8 -254.3,-22.2 z"
   id="path2573" />
	<g
   id="g2579">
		<g
   id="g2577">
			<path
   class="st4"
   d="m 456.6,1004 c 0,3.2 0,6.4 0,9.6 0,1.9 3,1.9 3,0 0,-3.2 0,-6.4 0,-9.6 0,-2 -3,-2 -3,0 z"
   id="path2575" />
		</g>
	</g>
	<g
   id="g2585">
		<g
   id="g2583">
			<path
   class="st4"
   d="m 457.7,1016.4 c 74.7,20.2 152.7,22.8 229.6,23.9 73.9,1 148.3,-2.2 221.1,-15.7 41,-7.6 81.4,-18.7 120.4,-33.8 1.8,-0.7 1,-3.6 -0.8,-2.9 -68.8,26.7 -141.9,40.3 -215.4,46 -74.1,5.7 -148.9,4.4 -223,-0.1 -44.3,-2.8 -88.2,-8.6 -131.1,-20.2 -1.9,-0.6 -2.7,2.3 -0.8,2.8 z"
   id="path2581" />
		</g>
	</g>
	<g
   id="g2591">
		<g
   id="g2589">
			<path
   class="st4"
   d="m 1028.8,988.7 c 0.6,-4.2 0.8,-8.5 0.4,-12.7 -0.2,-1.9 -3.2,-1.9 -3,0 0.3,4 0.3,8 -0.3,11.9 -0.3,1.8 2.6,2.7 2.9,0.8 z"
   id="path2587" />
		</g>
	</g>
	<g
   id="g2597">
		<g
   id="g2595">
			<path
   class="st4"
   d="m 459,1003.7 c 21,-10 41.6,-20.7 61.8,-32.3 1.7,-1 0.2,-3.5 -1.5,-2.6 -20.2,11.5 -40.8,22.3 -61.8,32.3 -1.8,0.8 -0.3,3.4 1.5,2.6 z"
   id="path2593" />
		</g>
	</g>
	<g
   id="g2603">
		<g
   id="g2601">
			<path
   class="st4"
   d="m 520,970 c 119.3,22.7 243.3,26.9 363.6,9.7 32,-4.6 63.8,-11.7 93.4,-24.9 1.8,-0.8 0.2,-3.4 -1.5,-2.6 -26.6,11.8 -55,18.7 -83.7,23.2 -29.2,4.6 -58.7,7.4 -88.2,9.3 -59.9,3.8 -120.1,2.8 -179.8,-2.9 -34.6,-3.3 -68.9,-8.3 -103,-14.7 -1.9,-0.3 -2.7,2.6 -0.8,2.9 z"
   id="path2599" />
		</g>
	</g>
	<g
   id="g2609">
		<g
   id="g2607">
			<path
   class="st4"
   d="m 976.4,954.3 c 17.8,5.8 34.5,13.9 50.1,24.2 1.6,1.1 3.1,-1.5 1.5,-2.6 -15.8,-10.4 -32.8,-18.6 -50.8,-24.5 -1.9,-0.6 -2.7,2.3 -0.8,2.9 z"
   id="path2605" />
		</g>
	</g>
	<g
   id="g2615">
		<g
   id="g2613">
			<path
   class="st4"
   d="m 459.2,1002.1 c 35.3,11.9 72.1,17.5 109.1,20.5 37.5,3 75.3,3.9 112.9,3.9 74.7,0 149.6,-5.1 223.2,-18.5 41.8,-7.6 83.2,-17.9 123.5,-31.4 1.8,-0.6 1,-3.5 -0.8,-2.9 -70.9,23.6 -144.6,37.4 -219,44.2 -74,6.8 -148.8,7.2 -223,2.8 -42.4,-2.6 -84.9,-7.9 -125.3,-21.5 -1.6,-0.6 -2.4,2.3 -0.6,2.9 z"
   id="path2611" />
		</g>
	</g>
	<g
   id="g2621">
		<g
   id="g2619">
			<path
   class="st4"
   d="m 516.8,431 c 122.2,-28.3 248,-34.5 373,-35.7 35.4,-0.4 70.8,-0.3 106.2,-0.3 1.9,0 1.9,-3 0,-3 -125.4,-0.2 -251.4,-0.3 -375.9,17 -35,4.9 -69.7,11.1 -104.1,19.1 -1.9,0.5 -1.1,3.4 0.8,2.9 z"
   id="path2617" />
		</g>
	</g>
	<path
   class="st3"
   d="m 1002.2,392.3 c 1.3,46.5 2.1,100.4 1.8,160.3 -0.2,34.8 -0.5,18.2 -3.6,163 -1.8,83.4 -2.3,114.8 -8.2,163 -3.8,31.4 -8.4,57.2 -11.8,74.7 25.8,7.2 50.4,14 72,20 33.4,9.3 42.3,11.8 55.6,13.7 20.6,2.8 45.7,3.2 74.7,-2.7 10.7,-87.6 16.6,-162.3 20,-219.5 12.2,-201 0.8,-293.6 -3.6,-326.1 -6,-43.8 -13.4,-79.8 -19.1,-104.7 -21.4,4.1 -38.8,8.5 -51,11.8 -41.9,11.5 -75.1,25 -102.9,36.4 -10.3,4.3 -18.6,7.8 -23.9,10.1 z"
   id="path2623" />
	<path
   class="st3"
   d="m 312.8,335.8 c -0.8,8.6 -1.7,19.2 -2.5,28.4 -16.6,189.3 -24.9,284 -27.6,344.9 -2.8,65.4 -3,160.2 10.9,278.1 1.1,2.4 3.1,5.7 6.7,8.4 4.7,3.5 9,3.4 17.5,5.8 6.7,1.9 10.2,3.8 13.4,5 9.2,3.6 29.8,7.7 56,6.7 37.6,-1.5 66.5,-13 87.7,-21.7 19.9,-8.1 35.8,-16.8 46.8,-23.4 -6.2,-55.7 -10.8,-114.5 -13.4,-176.2 -5.3,-131.2 0,-251.7 10.9,-359.1 -4.6,-1.8 -11.3,-4.3 -19.2,-7.5 -13.6,-5.5 -46.2,-18.8 -103.6,-46.8 -22.7,-11 -51.1,-25.3 -83.6,-42.6 z"
   id="path2625" />
	<path
   class="st4"
   d="m 1179.4,333.6 c 1.2,6.6 2.8,15.7 4.6,26.6 2.5,15.5 8.1,52.2 12.2,100.4 4.2,50.2 5.2,93.4 5.3,127.8 0.3,69.8 -2.3,121 -9.1,240.4 -2.1,37.2 -5.2,91.7 -9.1,158.2 4.1,-0.3 8.1,-0.5 12.2,-0.8 2,-16.6 4.7,-41.3 6.8,-71.5 1.6,-21.8 2.3,-37.7 3,-54.8 3.5,-78.4 4.1,-77.5 5.3,-109.5 2.4,-63.1 1.9,-111.6 1.5,-155.2 -0.3,-30.1 -1.2,-58.6 -3,-115.6 -1.3,-38.8 -2.6,-73.2 -11.4,-117.9 -2.3,-11.4 -4.5,-20.9 -6.1,-27.4 -4.1,-0.2 -8.1,-0.4 -12.2,-0.7 z"
   id="path2627" />
	<path
   class="st4"
   d="m 297.5,337.6 c -0.7,3.5 -1.8,8.9 -2.9,15.5 -3.2,19.1 -4,33.5 -4.3,38.2 -2.2,34 -6.6,50.6 -13,126.1 -1.2,13.8 -2.1,25.9 -3.9,50.2 -3.7,49.6 -5.5,74.4 -6.8,102.4 -1.4,31.3 -1.6,53.4 -1.9,97.6 -0.3,38.2 -0.5,65.8 0.5,101.9 0.8,28.8 2.4,67.9 6.3,114.5 8.1,2.4 16.1,4.8 24.2,7.2 -0.1,-4.5 -0.4,-12.6 -1,-22.7 -2.4,-44.9 -6.3,-63.1 -7.2,-100.5 -0.3,-11.5 -0.1,-19.1 0,-30 1.1,-78.2 -0.2,-113.9 0.5,-164.7 1.2,-82.9 6.8,-147.7 11.6,-202.9 4.5,-52.2 9.6,-96.9 14,-131.9 -5.5,-0.3 -10.8,-0.6 -16.1,-0.9 z"
   id="path2629" />
	<g
   id="g2635">
		<g
   id="g2633">
			<path
   class="st4"
   d="m 999.8,394 c 3.7,73.4 3.2,147 2.2,220.4 -1.1,71.8 -1.6,143.8 -7.1,215.5 -3.1,40.8 -8,81.5 -15.6,121.8 -0.4,1.9 2.5,2.7 2.9,0.8 13.3,-70.5 18.2,-142.2 20.4,-213.8 2.3,-73.1 3.3,-146.4 3.2,-219.6 -0.1,-41.7 -0.8,-83.4 -2.9,-125.1 -0.2,-1.9 -3.2,-1.9 -3.1,0 z"
   id="path2631" />
		</g>
	</g>
	<g
   id="g2641">
		<g
   id="g2639">
			<path
   class="st4"
   d="m 1003.5,394 c 55.5,-27.5 114.4,-47.3 175.2,-59 1.9,-0.4 1.1,-3.3 -0.8,-2.9 -61,11.8 -120.2,31.8 -175.9,59.3 -1.7,0.9 -0.2,3.5 1.5,2.6 z"
   id="path2637" />
		</g>
	</g>
	<g
   id="g2647">
		<g
   id="g2645">
			<path
   class="st4"
   d="m 1177.7,334.1 c 16.5,83.1 21.5,168 21.4,252.6 -0.2,84.6 -5.2,169 -9.3,253.5 -2.4,48.7 -4.8,97.3 -7.2,146 -0.1,1.9 2.9,1.9 3,0 4.3,-86.2 8.8,-172.4 12.7,-258.7 3.8,-84.6 6.2,-169.4 0.5,-253.9 -3.2,-47.1 -8.9,-94 -18.1,-140.2 -0.5,-2 -3.4,-1.2 -3,0.7 z"
   id="path2643" />
		</g>
	</g>
	<g
   id="g2653">
		<g
   id="g2651">
			<path
   class="st4"
   d="m 979.8,952.3 c 4.5,5.2 12.5,6.2 18.8,8.1 8.6,2.6 17.3,5.2 25.9,7.8 17.4,5.2 34.7,10.7 52.3,15.1 34.4,8.4 69.7,10.1 104.6,4.1 1.9,-0.3 1.1,-3.2 -0.8,-2.9 -34.4,5.9 -69.2,4.2 -103,-4.1 -16.1,-3.9 -31.9,-8.9 -47.7,-13.7 -8,-2.4 -16,-4.8 -24,-7.2 -4,-1.2 -8,-2.4 -12,-3.6 -4.2,-1.3 -8.9,-2.2 -11.9,-5.7 -1.4,-1.4 -3.5,0.7 -2.2,2.1 z"
   id="path2649" />
		</g>
	</g>
	<g
   id="g2659">
		<g
   id="g2657">
			<path
   class="st4"
   d="m 1179.7,334.2 c 3.7,0.9 7.4,1.8 11.2,2.7 1.9,0.5 2.7,-2.4 0.8,-2.9 -3.7,-0.9 -7.4,-1.8 -11.2,-2.7 -1.9,-0.4 -2.7,2.5 -0.8,2.9 z"
   id="path2655" />
		</g>
	</g>
	<g
   id="g2665">
		<g
   id="g2663">
			<path
   class="st4"
   d="m 1190.7,335.9 c 10,40.4 12.7,82.6 15.6,124.1 3,42.4 4.6,84.9 5.3,127.5 1.2,84.5 -1.7,169 -6.5,253.4 -2.7,47.8 -6.1,95.6 -9.6,143.4 -0.1,1.9 2.9,1.9 3,0 6.3,-85 12,-170 14.7,-255.2 2.7,-85 2.5,-170.2 -2.9,-255.2 -2.9,-46.2 -5.5,-93.6 -16.6,-138.7 -0.6,-2 -3.5,-1.2 -3,0.7 z"
   id="path2661" />
		</g>
	</g>
	<g
   id="g2671">
		<g
   id="g2669">
			<path
   class="st4"
   d="m 1184.2,987.9 c 4.4,-0.4 8.7,-0.8 13.1,-1.2 1.9,-0.2 1.9,-3.2 0,-3 -4.4,0.4 -8.7,0.8 -13.1,1.2 -1.9,0.2 -1.9,3.2 0,3 z"
   id="path2667" />
		</g>
	</g>
	<g
   id="g2677">
		<g
   id="g2675">
			<path
   class="st4"
   d="m 516.7,431.9 c -6.7,69.3 -10.7,138.8 -12,208.4 -1.3,69.9 0.1,139.9 4.3,209.7 2.3,39.2 5.6,78.3 9.6,117.3 0.2,1.9 3.2,1.9 3,0 -7.2,-69.2 -11.7,-138.7 -13.5,-208.3 -1.8,-69.9 -0.9,-139.9 2.8,-209.7 2.1,-39.2 5,-78.3 8.7,-117.4 0.3,-1.9 -2.7,-1.9 -2.9,0 z"
   id="path2673" />
		</g>
	</g>
	<g
   id="g2683">
		<g
   id="g2681">
			<path
   class="st4"
   d="m 314.7,338.2 c 64.9,36.1 132.3,67.7 201.5,94.6 1.8,0.7 2.6,-2.2 0.8,-2.9 -69,-26.8 -136.1,-58.3 -200.8,-94.3 -1.7,-1 -3.2,1.6 -1.5,2.6 z"
   id="path2679" />
		</g>
	</g>
	<g
   id="g2689">
		<g
   id="g2687">
			<path
   class="st4"
   d="m 311.6,337.5 c -11.1,84.6 -18.8,169.7 -23,255 -4.2,85.3 -4.8,170.7 -2,256 1.6,47.9 4.3,95.8 8.1,143.6 0.2,1.9 3.2,1.9 3,0 -6.8,-85.1 -10,-170.5 -9.8,-255.8 0.2,-85.4 4,-170.7 11.2,-255.8 4.1,-47.8 9.3,-95.4 15.5,-143 0.2,-1.9 -2.8,-1.9 -3,0 z"
   id="path2685" />
		</g>
	</g>
	<g
   id="g2695">
		<g
   id="g2693">
			<path
   class="st4"
   d="m 294.6,994 c 55.7,30.3 122.4,23.8 179,-0.2 17,-7.2 33.4,-15.9 49.2,-25.4 1.6,-1 0.1,-3.6 -1.5,-2.6 -52.7,31.9 -114.5,54.2 -176.8,42.6 -16.9,-3.1 -33.3,-8.8 -48.4,-17 -1.6,-0.9 -3.2,1.7 -1.5,2.6 z"
   id="path2691" />
		</g>
	</g>
	<g
   id="g2701">
		<g
   id="g2699">
			<path
   class="st4"
   d="m 272.5,985.7 c 7,3.3 14.2,6.1 21.5,8.6 1.8,0.6 2.6,-2.3 0.8,-2.9 -7.1,-2.4 -14,-5.1 -20.8,-8.3 -1.8,-0.8 -3.3,1.8 -1.5,2.6 z"
   id="path2697" />
		</g>
	</g>
	<g
   id="g2707">
		<g
   id="g2705">
			<path
   class="st4"
   d="M 295.5,338.2 C 284.7,422 275.7,506 269.8,590.3 c -5.8,83.9 -8.6,168 -6.8,252.1 1,47.6 3.4,95.2 7.5,142.6 0.2,1.9 3.2,1.9 3,0 -7.2,-84.1 -9.3,-168.5 -7.3,-252.9 1.9,-84.1 7.7,-168.1 16,-251.9 4.7,-47.4 10.2,-94.8 16.3,-142.1 0.3,-1.8 -2.7,-1.8 -3,0.1 z"
   id="path2703" />
		</g>
	</g>
	<g
   id="g2713">
		<g
   id="g2711">
			<path
   class="st4"
   d="m 297.2,340.3 c 5.8,-1.2 11.6,-1.6 17.6,-1.3 1.9,0.1 1.9,-2.9 0,-3 -6.2,-0.3 -12.3,0.2 -18.4,1.4 -1.9,0.4 -1.1,3.3 0.8,2.9 z"
   id="path2709" />
		</g>
	</g>
	<g
   id="g2719">
		<g
   id="g2717">
			<path
   class="st4"
   d="m 1038.1,400.8 c 4.2,116 4,232.1 -0.8,348.1 -1.3,32.5 -3,64.9 -5.1,97.4 -0.1,1.9 2.9,1.9 3,0 7.3,-115.8 10.1,-231.9 8.4,-348 -0.5,-32.5 -1.3,-65 -2.5,-97.5 -0.1,-1.9 -3.1,-1.9 -3,0 z"
   id="path2715" />
		</g>
	</g>
	<g
   id="g2725">
		<g
   id="g2723">
			<path
   class="st4"
   d="m 1086.6,359.2 c 4,80.7 6,161.6 5.9,242.4 0,80.8 -2,161.7 -6,242.4 -2.2,45.7 -5.1,91.3 -8.6,136.9 -0.1,1.9 2.9,1.9 3,0 6.2,-80.6 10.4,-161.3 12.7,-242.1 2.2,-80.8 2.5,-161.7 0.8,-242.5 -1,-45.7 -2.6,-91.4 -4.8,-137.1 -0.1,-1.9 -3.1,-1.9 -3,0 z"
   id="path2721" />
		</g>
	</g>
	<g
   id="g2731">
		<g
   id="g2729">
			<path
   class="st4"
   d="m 1144.8,341.4 c 5.6,83.9 9,168 9.9,252.2 0.9,84.5 -0.5,168.9 -4.3,253.3 -2.1,47.3 -5,94.6 -8.7,141.8 -0.1,1.9 2.9,1.9 3,0 6.4,-83.9 10.6,-168 12.3,-252.1 1.7,-84.4 1.1,-168.9 -1.9,-253.4 -1.7,-47.3 -4.1,-94.6 -7.3,-141.9 -0.1,-1.9 -3.1,-1.9 -3,0.1 z"
   id="path2727" />
		</g>
	</g>
	<g
   id="g2737">
		<g
   id="g2735">
			<path
   class="st4"
   d="m 1027.8,883.8 c -2.3,26.2 -6.5,52.2 -12.6,77.8 -0.4,1.9 2.4,2.7 2.9,0.8 6.2,-25.9 10.4,-52.1 12.7,-78.6 0.2,-1.9 -2.8,-1.9 -3,0 z"
   id="path2733" />
		</g>
	</g>
	<g
   id="g2743">
		<g
   id="g2741">
			<path
   class="st4"
   d="m 347.5,357.7 c -12,83.9 -17.1,168.7 -17.9,253.4 -0.7,85.2 2.8,170.3 8,255.3 2.9,48.1 6.3,96.1 9.7,144.2 0.1,1.9 3.1,1.9 3,0 -6,-84.7 -12,-169.4 -15.3,-254.2 -3.3,-84.6 -3.8,-169.4 1.1,-254 2.8,-48.1 7.4,-96.2 14.2,-143.9 0.4,-1.8 -2.5,-2.7 -2.8,-0.8 z"
   id="path2739" />
		</g>
	</g>
	<g
   id="g2749">
		<g
   id="g2747">
			<path
   class="st4"
   d="m 405,385.7 c -7.6,81.1 -12.7,162.5 -14.4,244 -1.6,81.4 0.3,162.8 7,244 3.7,45.1 8.9,90 15.7,134.7 0.3,1.9 3.2,1.1 2.9,-0.8 C 404,927 397,845.6 394.4,764.1 c -2.6,-80.4 -1.1,-161 3.3,-241.3 2.5,-45.7 6,-91.4 10.3,-137 0.2,-2 -2.8,-2 -3,-0.1 z"
   id="path2745" />
		</g>
	</g>
	<g
   id="g2755">
		<g
   id="g2753">
			<path
   class="st4"
   d="m 462.6,409.6 c -9.8,75.7 -15.5,151.9 -17,228.2 -1.5,76.3 1.1,152.7 7.8,228.7 3.8,42.4 8.8,84.6 15.1,126.7 0.3,1.9 3.2,1.1 2.9,-0.8 C 460.1,917 452.9,841.1 449.8,765 c -3.1,-75.9 -2,-152 3.1,-227.9 2.9,-42.6 7.1,-85.2 12.6,-127.6 0.4,-1.8 -2.6,-1.8 -2.9,0.1 z"
   id="path2751" />
		</g>
	</g>
	<path
   class="st5"
   d="m 1122.4,348.2 c 11.1,45.3 20.1,98.4 23.1,157.9 7.5,151.4 -28.1,275.1 -59.1,354.5 -21.9,35.1 -43.7,70.2 -65.6,105.3 21.3,9.2 52.9,19.9 92.3,23.1 27.2,2.2 50.8,0.2 69.2,-2.8 0.2,-4.4 3.5,-71.3 3.7,-75.7 10.9,-224.1 11.6,-239.4 12,-254.8 1.8,-62.7 1.5,-152.7 -9.2,-265 -3.7,-19.1 -7.4,-38.2 -11.1,-57.2 -18.3,4.8 -36.8,9.7 -55.3,14.7 z"
   id="path2757" />
	<path
   class="st6"
   d="M 424.5,397.1 C 421.9,408 418,424.3 413.4,444.2 393,533 378,598.3 370,658.4 c -14.2,105.9 -27.9,208.5 30.5,292.7 17,24.5 35.6,41 48,50.8 -12,4.7 -26.9,9 -44.3,11.1 -48.4,5.7 -87.2,-10 -106.2,-19.4 -7.2,-66.3 -12.2,-137.3 -13.8,-212.4 -3.6,-166.2 9.9,-315.6 30.5,-444.1 36.5,20 73.1,40 109.8,60 z"
   id="path2759" />
</g>
<g
   id="cat"
   transform="translate(-145.50802,-59.399997)">
	<path
   d="m 319.6,289.5 c -1.3,1 -0.3,4.9 1.5,11.6 0.7,2.6 1.4,4.6 1.8,5.9 -0.8,5.4 -1.5,10.8 -2.3,16.2 -1.6,0.2 -5.7,1.1 -9.5,4.4 -3.5,3.1 -4.9,6.7 -5.4,8.3 3.2,0.3 7.1,1 11.3,2.3 6.1,1.9 10.9,4.5 14.4,6.7 0,1.2 0.2,3.5 1.8,5.2 1.4,1.4 3.1,1.6 4.1,1.8 3.6,0.6 7.9,1.4 13.4,2.6 2.4,1.4 6.4,3.7 11.3,6.4 16.6,9 22.6,10.5 39.2,19.3 10.7,5.7 9.8,5.9 17.3,9.5 11.5,5.6 21.4,8.9 28.1,10.8 2.8,-3.1 7.3,-9.1 9.8,-17.8 2,-6.9 1.9,-12.9 1.5,-16.8 1.7,0.9 4.4,1.9 7.5,1.5 8,-0.9 13.1,-10 14.7,-16.5 1.4,-5.7 0.1,-9.3 -1,-16 -2.5,-15 -4.7,-28.4 1.5,-36.9 5.2,-7.1 15.9,-10.4 24.5,-19.9 0.8,-0.9 2.3,-2.6 1.8,-3.4 -0.9,-1.5 -7.9,1.1 -11.3,2.6 -2.2,1 -18.7,8.6 -23.7,25.8 -0.8,2.7 -0.9,10.5 -1,26 -0.1,11.3 0.1,17.7 -4.4,21.4 -2.3,1.9 -5.7,3 -8.8,2.3 -4.6,-1 -6.8,-5.5 -8.8,-8.5 -5.2,-7.9 -12.6,-11.2 -21.7,-15.7 -7.1,-3.5 -13.2,-4.8 -25.5,-7.5 -11.6,-2.5 -15.1,-2.2 -20.1,-5.9 -5.6,-4.2 -8.7,-10.1 -10.3,-13.4 -1.6,-3.1 -4.1,-8 -5.2,-15 -0.6,-4.1 -0.5,-7 -1.5,-7.2 -1.8,-0.4 -2.7,7.9 -8.8,10.8 -3.7,1.8 -6.1,0.1 -12.6,0.3 -4.2,0.1 -9,1 -14.4,3.4 -1.8,-1.3 -7.4,-5.9 -9.2,-4.6 z"
   id="path2762" />
	<g
   id="g2768">
		<g
   id="g2766">
			<path
   d="m 322.6,322.4 c -2.1,-16.5 12.9,-31.5 29.5,-29.8 15.7,1.6 26.1,20.7 25.6,35 -0.1,1.9 2.9,1.9 3,0 0.5,-15.8 -11.3,-36.6 -28.6,-38 -18.2,-1.5 -34.8,14.6 -32.5,32.8 0.3,1.8 3.3,1.9 3,0 z"
   id="path2764" />
		</g>
	</g>
	<g
   id="g2774">
		<g
   id="g2772">
			<path
   d="m 322.3,332.8 c 6.1,11.9 19.2,20.3 32.9,18.5 12.5,-1.7 23.1,-11.8 25,-24.3 0.3,-1.9 -2.6,-2.7 -2.9,-0.8 -1.7,11.4 -11.1,20.6 -22.5,22.1 -12.5,1.7 -24.3,-6.1 -29.9,-17 -0.9,-1.7 -3.5,-0.2 -2.6,1.5 z"
   id="path2770" />
		</g>
	</g>
	<g
   id="g2780">
		<g
   id="g2778">
			<path
   d="m 333.1,347.3 c -0.3,-3.8 10.5,-5.4 13.2,-6 4.9,-1.1 9.9,-1.7 14.9,-1.7 9.3,0 18.2,2.4 26.1,7.3 1.6,1 3.2,-1.6 1.5,-2.6 -10.2,-6.3 -22.1,-8.5 -33.9,-7.4 -6.2,0.6 -12.3,1.9 -18.2,3.9 -3.2,1.1 -7,2.5 -6.7,6.5 0.2,1.9 3.3,1.9 3.1,0 z"
   id="path2776" />
		</g>
	</g>
	<g
   id="g2786">
		<g
   id="g2784">
			<path
   d="m 376.1,312.7 c 6.3,7.6 16.5,9.4 25.6,11.4 12.1,2.8 24.6,5.3 35.2,12 21.9,13.8 26,43.9 8.7,63.2 -1.3,1.4 0.8,3.6 2.1,2.1 15.4,-17.1 15.8,-43.3 -0.1,-60.3 -8.4,-9 -20.4,-13.7 -32.1,-16.8 -11.9,-3.1 -29,-3.6 -37.4,-13.8 -1.1,-1.4 -3.2,0.7 -2,2.2 z"
   id="path2782" />
		</g>
	</g>
	<g
   id="g2792">
		<g
   id="g2790">
			<path
   d="m 446.1,365 c -5,-6.6 -13.8,-8.9 -21.5,-5.7 -9.5,3.9 -10,15.6 -8.9,24.5 0.2,1.9 3.2,1.9 3,0 -0.9,-7 -1,-17.8 6.2,-21.3 6.2,-3.1 14.3,-1.5 18.5,4.1 1.2,1.5 3.8,0 2.7,-1.6 z"
   id="path2788" />
		</g>
	</g>
	<g
   id="g2798">
		<g
   id="g2796">
			<path
   d="m 418.3,382.4 c -5.5,-4.2 -11.2,-7.8 -18.3,-5.9 -0.8,0.2 -1.2,1.1 -1,1.8 1.8,7 12.8,9.9 18.6,12.4 8.9,3.9 18,7.2 27.2,10.1 1.8,0.6 2.6,-2.3 0.8,-2.9 -7.4,-2.3 -14.6,-4.8 -21.8,-7.8 -3.9,-1.6 -7.7,-3.3 -11.5,-5.1 -3.4,-1.6 -9.5,-3.5 -10.5,-7.5 -0.3,0.6 -0.7,1.2 -1,1.8 6.2,-1.7 11.3,2 15.9,5.6 1.6,1.3 3.1,-1.3 1.6,-2.5 z"
   id="path2794" />
		</g>
	</g>
	<g
   id="g2804">
		<g
   id="g2802">
			<path
   d="m 330.4,347 c 3.9,6.4 11.8,7.5 18.7,8.5 10.2,1.5 20.4,1.5 30.6,0.4 1.9,-0.2 1.9,-3.2 0,-3 -8.2,0.9 -16.4,1.1 -24.6,0.3 -6.9,-0.7 -18,-1.1 -22.2,-7.7 -0.9,-1.7 -3.5,-0.2 -2.5,1.5 z"
   id="path2800" />
		</g>
	</g>
	<g
   id="g2810">
		<g
   id="g2808">
			<path
   d="m 307.1,336.8 c 1.3,-7 7.4,-10.6 14.2,-10.9 -0.5,-0.4 -1,-0.7 -1.4,-1.1 0.5,2.4 1.2,4.7 2.2,6.9 0.7,1.8 3.6,1 2.9,-0.8 -0.9,-2.3 -1.6,-4.5 -2.2,-6.9 -0.1,-0.6 -0.8,-1.1 -1.4,-1.1 -8,0.4 -15.6,4.8 -17.1,13.1 -0.4,1.9 2.5,2.7 2.8,0.8 z"
   id="path2806" />
		</g>
	</g>
	<g
   id="g2816">
		<g
   id="g2814">
			<path
   d="m 324.5,305.8 c -1.5,-4.3 -2.6,-8.8 -3,-13.4 0,-0.4 -0.1,-0.8 -0.1,-1.2 -0.1,-0.9 0,-0.8 0.4,0.3 0.9,0.6 1.8,1.3 2.7,2 1.5,1.3 2.9,2.7 4.1,4.2 1.3,1.5 3.4,-0.7 2.1,-2.1 -1.7,-2 -8.8,-10.2 -11.8,-7 -1.5,1.6 -0.4,5.3 -0.1,7.1 0.5,3.7 1.5,7.4 2.7,10.9 0.8,1.8 3.7,1.1 3,-0.8 z"
   id="path2812" />
		</g>
	</g>
	<g
   id="g2822">
		<g
   id="g2820">
			<path
   d="m 358.3,291.8 c 0.9,-1.6 1.8,-3.2 2.8,-4.8 0.4,-0.7 0.8,-1.3 1.1,-2 0.6,-1 0.6,-1.9 1.8,-1.6 1.4,0.3 0.9,3.6 0.9,4.8 0,1.9 0.1,3.8 0.1,5.7 0,1.9 3,1.9 3,0 0,-3.1 0.1,-6.2 -0.1,-9.3 -0.1,-2 -0.8,-4.2 -3,-4.9 -2,-0.6 -3.4,0.7 -4.4,2.2 -1.7,2.7 -3.2,5.6 -4.8,8.3 -1,1.8 1.6,3.3 2.6,1.6 z"
   id="path2818" />
		</g>
	</g>
	<g
   id="g2828">
		<g
   id="g2826">
			<path
   d="m 454.1,357.2 c 0.6,7.6 9.1,10.1 15,6.4 8.7,-5.4 10.6,-17.6 9.5,-26.8 -1.5,-12.6 -4.5,-24.3 -0.2,-36.8 4.1,-11.9 14.3,-21.6 27.2,-22.4 1.9,-0.1 1.9,-3.1 0,-3 -17.6,1.1 -29.6,16.1 -32.1,32.7 -1.5,9.9 0.7,19.1 2,28.8 0.8,6.4 0.4,12.5 -2.5,18.4 -1.3,2.5 -3.1,5 -5.5,6.6 -3.7,2.3 -10.1,1.6 -10.5,-3.8 0,-2 -3,-2.1 -2.9,-0.1 z"
   id="path2824" />
		</g>
	</g>
	<g
   id="g2834">
		<g
   id="g2832">
			<path
   d="m 455.7,362.6 c 3.1,8.3 13.9,4.6 18.6,-0.2 7.7,-7.8 6,-20.8 5.4,-30.7 -0.1,-1.9 -3.1,-1.9 -3,0 0.4,6.3 1,13.1 -0.1,19.4 -0.5,3 -1.6,5.8 -3.6,8.2 -2.2,2.7 -11.8,9.5 -14.4,2.5 -0.7,-1.8 -3.6,-1 -2.9,0.8 z"
   id="path2830" />
		</g>
	</g>
	<g
   id="g2840">
		<g
   id="g2838">
			<path
   d="m 505.7,274.5 c -11.4,4.4 -22.9,10.6 -27.5,22.6 -5.3,13.8 -1.5,28.8 -1.8,43.1 0,1.9 3,1.9 3,0 0.3,-12.5 -2.7,-25.3 0.3,-37.7 3.3,-13.6 14.6,-20.4 26.8,-25.1 1.8,-0.7 1,-3.6 -0.8,-2.9 z"
   id="path2836" />
		</g>
	</g>
	<g
   id="g2846">
		<g
   id="g2844">
			<path
   d="m 503.4,276.2 c -10.5,4.8 -20.1,13.2 -25,23.9 -2.6,5.6 -2.2,11.8 -2.2,17.9 0,7.8 0.3,15.7 0.9,23.5 0.1,1.9 3.1,1.9 3,0 -0.4,-6.3 -0.7,-12.5 -0.8,-18.8 -0.1,-6.6 -1,-14.4 1.5,-20.6 4.3,-10.5 14,-18.6 24.1,-23.3 1.8,-0.8 0.3,-3.4 -1.5,-2.6 z"
   id="path2842" />
		</g>
	</g>
	<g
   id="g2852">
		<g
   id="g2850">
			<path
   class="st3"
   d="m 328.5,312.4 c 2.8,4.9 9.9,3.2 10.6,-2.2 0.1,-1 -1.4,-0.9 -1.5,0 -0.5,4.1 -5.7,4.9 -7.8,1.5 -0.5,-0.9 -1.8,-0.1 -1.3,0.7 z"
   id="path2848" />
		</g>
	</g>
	<g
   id="g2858">
		<g
   id="g2856">
			<path
   class="st3"
   d="m 349.7,308.5 c 3.1,5.3 11,3.2 11.1,-2.9 0,-1 -1.5,-1 -1.5,0 -0.1,4.7 -5.9,6.2 -8.3,2.2 -0.5,-0.9 -1.8,-0.2 -1.3,0.7 z"
   id="path2854" />
		</g>
	</g>
	<g
   id="g2864">
		<g
   id="g2862">
			<path
   class="st3"
   d="m 343.7,315.1 c 0.7,2.9 0.1,5.8 -1.7,8.2 -0.6,0.8 0.7,1.5 1.3,0.8 2,-2.7 2.6,-6.1 1.9,-9.4 -0.3,-0.9 -1.8,-0.5 -1.5,0.4 z"
   id="path2860" />
		</g>
	</g>
	<g
   id="g2870">
		<g
   id="g2868">
			<path
   class="st3"
   d="m 344.3,315 c -0.3,3.8 1.8,7.4 5.3,9 0.9,0.4 1.6,-0.9 0.8,-1.3 -3,-1.4 -4.9,-4.4 -4.6,-7.7 0,-1 -1.5,-1 -1.5,0 z"
   id="path2866" />
		</g>
	</g>
	<g
   id="g2876">
		<g
   id="g2874">
			<path
   class="st3"
   d="m 319.9,323.9 c 8.8,-0.7 14.4,6.5 20.3,11.8 0.7,0.6 1.8,-0.4 1.1,-1.1 -6.2,-5.6 -12.2,-12.9 -21.4,-12.3 -0.9,0.1 -0.9,1.6 0,1.6 z"
   id="path2872" />
		</g>
	</g>
	<g
   id="g2882">
		<g
   id="g2880">
			<path
   class="st3"
   d="m 336.3,341.5 c 11.3,-7.2 24.7,-9.6 37.8,-6.7 0.9,0.2 1.3,-1.2 0.4,-1.4 -13.5,-2.9 -27.3,-0.5 -38.9,6.9 -0.9,0.4 -0.1,1.7 0.7,1.2 z"
   id="path2878" />
		</g>
	</g>
	<g
   id="g2888">
		<g
   id="g2886">
			<path
   class="st3"
   d="m 364.7,355.2 c 9.3,0.6 18.1,-2.3 25.2,-8.4 0.7,-0.6 -0.3,-1.7 -1.1,-1.1 -6.8,5.8 -15.2,8.6 -24.1,8 -0.9,0 -0.9,1.5 0,1.5 z"
   id="path2884" />
		</g>
	</g>
	<g
   id="g2894">
		<g
   id="g2892">
			<path
   class="st3"
   d="m 362,284.2 c -2.2,3.7 -2.7,8 -1.4,12.1 0.3,0.9 1.7,0.5 1.4,-0.4 -1.2,-3.7 -0.8,-7.6 1.2,-10.9 0.6,-0.9 -0.7,-1.7 -1.2,-0.8 z"
   id="path2890" />
		</g>
	</g>
	<g
   id="g2900">
		<g
   id="g2898">
			<path
   class="st3"
   d="m 322.4,293.5 c 2.4,1.5 3.9,3.8 4.5,6.5 0.2,0.9 1.6,0.5 1.4,-0.4 -0.7,-3.1 -2.5,-5.7 -5.2,-7.4 -0.8,-0.5 -1.5,0.8 -0.7,1.3 z"
   id="path2896" />
		</g>
	</g>
	<g
   id="g2906">
		<g
   id="g2904">
			<path
   class="st3"
   d="m 375.3,309.5 c 1.9,2.3 4.1,4.3 6.6,5.8 0.8,0.5 1.6,-0.8 0.8,-1.3 -2.4,-1.5 -4.6,-3.4 -6.3,-5.6 -0.7,-0.7 -1.7,0.4 -1.1,1.1 z"
   id="path2902" />
		</g>
	</g>
	<g
   id="g2912">
		<g
   id="g2910">
			<path
   class="st3"
   d="m 437,358.6 c -2.1,-5.3 -12.2,-1.7 -15.5,0.4 -5.9,3.9 -8.5,11.2 -6.3,17.9 0.3,0.9 1.7,0.5 1.4,-0.4 -1.7,-5.3 -0.3,-11 3.9,-14.9 1.8,-1.7 4.2,-2.9 6.6,-3.5 1.7,-0.5 7.5,-1.6 8.4,0.8 0.4,1 1.8,0.6 1.5,-0.3 z"
   id="path2908" />
		</g>
	</g>
	<g
   id="g2918">
		<g
   id="g2916">
			<path
   class="st3"
   d="m 416.4,377 c -7.8,-3.3 -16.1,-3.6 -24.2,-1.1 -0.9,0.3 -0.5,1.7 0.4,1.4 7.9,-2.5 15.8,-2.1 23.4,1.1 0.9,0.4 1.3,-1.1 0.4,-1.4 z"
   id="path2914" />
		</g>
	</g>
</g>
<g
   id="girl_waving"
   transform="translate(-145.50802,-59.399997)">
	<g
   id="legs">
		<path
   class="st0"
   d="m 691.1,792.9 c -4.1,9.8 -4.1,17.1 -4.7,35.9 -0.7,23.2 -2.7,46.3 -2.9,69.4 -0.2,19.5 -0.5,49 -1.3,87.4 32,1.8 67.4,2.2 105.8,0.3 36.6,-1.8 70.4,-5.5 100.9,-10.1 -14.4,-48.7 -23.9,-84.2 -30.7,-111.7 -3.6,-14.7 -8.9,-36.7 -23.5,-62.4 -8,-14.1 -16.3,-24.7 -22.4,-31.8 -1.6,-1.4 -36.9,-31.1 -77.7,-17.1 -2,0.8 -31.7,11.6 -43.5,40.1 z"
   id="path2921"
   style="fill:#ffcd73;fill-opacity:0.819608" />
		<g
   id="g2927">
			<g
   id="g2925">
				<path
   class="st7"
   d="m 750,851.2 c 6.7,11.9 13.4,23.8 20,35.7 0.9,1.7 3.5,0.2 2.6,-1.5 -6.7,-11.9 -13.4,-23.8 -20,-35.7 -0.9,-1.7 -3.5,-0.2 -2.6,1.5 z"
   id="path2923" />
			</g>
		</g>
		<g
   id="g2933">
			<g
   id="g2931">
				<path
   class="st7"
   d="m 749.2,850.6 c 15.4,19.2 24.3,41.1 29.1,65.1 4.5,22.7 7.4,45.7 9.1,68.8 0.1,1.9 3.1,1.9 3,0 -1.8,-23.7 -4.8,-47.4 -9.4,-70.7 -4.8,-24.1 -14.2,-46.1 -29.6,-65.3 -1.2,-1.6 -3.4,0.6 -2.2,2.1 z"
   id="path2929" />
			</g>
		</g>
		<path
   class="st8"
   d="m 773.3,750.5 c 3.5,7 8.5,17.3 14.1,29.7 16.3,36.2 33.2,74.4 42.2,121.4 3.7,19 7.2,46.5 5.7,80.8 8.4,-0.4 17.3,-1.1 26.6,-2.1 9.3,-1 18.2,-2.2 26.6,-3.6 -2.6,-8.8 -6.8,-22.8 -11.5,-40.1 -13.1,-48.4 -14.9,-63.5 -26.1,-95.4 -8.3,-23.7 -16,-39.8 -27.1,-55.2 -10,-13.9 -19.4,-22.6 -31.3,-28.7 -7.4,-3.8 -14.3,-5.7 -19.2,-6.8 z"
   id="path2935" />
		<path
   class="st9"
   d="m 749.4,851.7 c 3.9,14.6 7.3,32 8.9,51.6 2.8,33.9 -0.8,62.8 -5.2,84.4 11.5,-0.7 22.9,-1.4 34.4,-2.1 -1.2,-22.7 -3.8,-41.8 -6.3,-56.3 -6.3,-36.9 -12.9,-50.6 -18.2,-59.4 -5,-8.1 -10,-14.2 -13.6,-18.2 z"
   id="path2937" />
	</g>
	<g
   id="hand_right">
		<path
   class="st3"
   d="m 621.3,622.5 c -3.3,2.2 -5.3,6.4 -9.2,14.7 -3.2,6.8 -4.7,12.1 -7.1,20 -6.6,22.4 -5.9,18.6 -8.2,27.1 -3,11.3 -8.4,31.1 -11.4,57.2 -2.9,25.3 -2.3,44.8 -2.2,49.5 1.1,29.7 6.3,51.8 9.8,66 6.2,25.5 14.5,46.7 31,89 3.6,9.1 6.6,16.6 8.7,21.8 -1.5,0.2 -3.9,0.5 -6.8,0.9 -15.1,1.8 -17.2,1.4 -23.3,2.7 -7.8,1.7 -14.8,3.4 -17.5,9.3 -1.2,2.7 -1.7,6.5 -0.2,7.8 1.9,1.6 5.6,-2 12,-4.1 5.4,-1.7 10.2,-1.6 13.5,-1.1 -2.6,5.1 -4.1,9.7 -5,13 -2.2,7.6 -3.9,13.8 -1.1,18.2 1.4,2.2 4.1,4.2 6.3,3.6 1.2,-0.3 2.3,-1.4 5.3,-9.3 2.9,-7.9 3.1,-10.4 5.5,-13.5 2.1,-2.6 4.5,-4 6.1,-4.8 -0.8,2.5 -1.7,6.2 -2.1,10.7 -0.2,2.7 -0.5,5.2 0,8.4 0.4,2.9 1.3,9.1 5.9,12.5 0.8,0.6 4.1,3.1 6.1,1.8 1.7,-1 1.2,-3.8 1.9,-12.8 0.6,-7.6 1.2,-9.7 1.7,-10.9 1.3,-3.5 3.3,-6 4.8,-7.5 -0.5,7.2 -0.4,13.2 -0.2,17.6 0.4,7.1 1.1,10.3 3.4,12.3 1.3,1.1 3.5,2.2 5.3,1.4 1.8,-0.8 2.4,-3.3 2.9,-6.4 2.2,-11.7 0.9,-15.1 3.4,-21 1,-2.3 2.1,-5.1 4.8,-7.1 5.7,-4.2 13.8,-1.7 14.9,-1.4 4.8,1.5 6.6,4.1 9,3 2,-0.9 3.1,-3.8 3.2,-6.2 0.1,-5.9 -6.4,-10.4 -12,-14.1 -2.8,-1.9 -7,-4.4 -12.6,-6.4 -4.9,-9.7 -11.1,-23.8 -16.2,-41.7 -3.4,-12 -5,-21.2 -6.5,-29.9 -5.3,-30.5 -3.4,-42.2 -9.3,-72.5 -1.4,-7.3 -2.8,-13.1 -3.6,-16.4 0.4,-5 1.1,-12.8 2.1,-22.3 3.3,-31 5.5,-50.4 12.2,-73.2 5.3,-17.9 10.7,-32.6 10.7,-32.6 6.8,-18.3 9,-20.8 8.2,-26.7 -2.8,-18.6 -31.9,-34.8 -44.2,-26.6 z"
   id="path2940" />
		<g
   id="g2946">
			<g
   id="g2944">
				<path
   class="st4"
   d="m 613.6,632 c -17.8,41.1 -29,85 -31.4,129.8 -2.5,45.7 5.4,90.4 20.2,133.6 8.4,24.7 18.6,48.7 29,72.7 0.8,1.8 3.3,0.2 2.6,-1.5 -18,-41.6 -35.6,-83.8 -44,-128.4 -8.3,-44 -6.6,-89.5 3,-133.2 5.4,-24.5 13.2,-48.4 23.2,-71.4 0.7,-1.8 -1.8,-3.4 -2.6,-1.6 z"
   id="path2942" />
			</g>
		</g>
		<g
   id="g2952">
			<g
   id="g2950">
				<path
   class="st4"
   d="m 650.9,689.1 c -12.6,38.1 -19.2,78 -19.9,118.1 0,1.9 3,1.9 3,0 0.7,-39.9 7.3,-79.4 19.8,-117.3 0.6,-1.8 -2.3,-2.6 -2.9,-0.8 z"
   id="path2948" />
			</g>
		</g>
		<g
   id="g2958">
			<g
   id="g2956">
				<path
   class="st4"
   d="m 620.5,789 c 8.9,12.4 12.5,27.2 14.6,42 2.2,15.1 3.2,30.4 5.4,45.5 4.4,30.7 11.6,61.3 26.1,88.8 0.9,1.7 3.5,0.2 2.6,-1.5 -15.1,-28.6 -22.2,-60.5 -26.4,-92.3 -3.7,-27.9 -2.6,-60.2 -19.7,-84 -1.1,-1.5 -3.7,0 -2.6,1.5 z"
   id="path2954" />
			</g>
		</g>
		<g
   id="g2964">
			<g
   id="g2962">
				<path
   class="st4"
   d="m 631,966.7 c -9.3,0.5 -18.6,1.4 -27.7,3.1 -6.5,1.3 -13.4,3.4 -17.9,8.6 -2.6,3.1 -5.9,10.5 -0.2,12.6 2.5,0.9 4.7,-0.8 6.8,-2 5.2,-3 10.6,-6.1 16.8,-4.4 1.9,0.5 2.7,-2.4 0.8,-2.9 -5.1,-1.4 -9.7,-0.2 -14.3,2.1 -1.4,0.7 -2.7,1.4 -4,2.2 -0.8,0.4 -1.5,0.9 -2.3,1.4 -0.9,-1.6 -1.9,-3.2 -2.8,-4.8 0.2,-2.5 5.2,-5.4 7,-6.4 4.9,-2.6 10.6,-3.5 16,-4.3 7.3,-1.1 14.6,-1.8 21.9,-2.2 1.9,-0.1 1.9,-3.1 -0.1,-3 z"
   id="path2960" />
			</g>
		</g>
		<g
   id="g2970">
			<g
   id="g2968">
				<path
   class="st4"
   d="m 622.8,975.6 c -7.9,1.3 -14.4,6.7 -17.4,14 -3.2,7.6 -5.9,18.9 -2.2,26.7 2.8,5.9 9.7,8 12.3,0.8 1.6,-4.5 1.3,-9.4 2.9,-13.9 2,-5.6 5.4,-10.4 10.4,-13.7 1.6,-1.1 0.1,-3.7 -1.5,-2.6 -4.7,3.1 -8.2,7.3 -10.5,12.4 -1.2,2.6 -2.1,5.3 -2.7,8.1 -0.5,2.3 -0.8,13.9 -6.3,10.5 -3.1,-1.9 -3.4,-8 -3.3,-11.1 0.2,-4.6 1.4,-9.9 2.9,-14.3 2.5,-7.4 8.4,-12.7 16.1,-14 2,-0.3 1.2,-3.2 -0.7,-2.9 z"
   id="path2966" />
			</g>
		</g>
		<g
   id="g2976">
			<g
   id="g2974">
				<path
   class="st4"
   d="m 632.2,983 c -6.2,4 -8.4,12.7 -9,19.7 -0.6,7.5 1.5,15.6 7.1,20.9 3.3,3.1 8.4,4.7 9.3,-1.1 1.5,-9.7 -2.4,-23.4 8.2,-29.2 1.7,-0.9 0.2,-3.5 -1.5,-2.6 -3.8,2.1 -6.2,5.5 -7.7,9.6 -2.1,6 -0.9,12.1 -1.8,18.3 -0.4,2.8 -1.2,5.8 -4.3,2.9 -1.1,-1 -2.1,-2.3 -2.9,-3.6 -1.9,-3 -3,-6.4 -3.3,-9.9 -0.7,-7 1.1,-18.2 7.5,-22.4 1.5,-1.1 0,-3.7 -1.6,-2.6 z"
   id="path2972" />
			</g>
		</g>
		<g
   id="g2982">
			<g
   id="g2980">
				<path
   class="st4"
   d="m 646.4,991 c -1.9,7.2 -3.7,14.7 -2.5,22.2 0.5,3.6 2.6,12.4 7.2,13.3 5.2,1 7.3,-8.2 7.8,-11.6 1.1,-7.4 -0.3,-16.3 5.5,-22 1.4,-1.4 -0.7,-3.5 -2.1,-2.1 -7,6.9 -4.6,16.9 -6.7,25.7 -0.7,3.2 -2.7,8 -6,4.3 -1.8,-1.9 -2.3,-5.6 -2.7,-8.1 -1,-7 0.7,-14 2.5,-20.8 0.4,-1.9 -2.5,-2.7 -3,-0.9 z"
   id="path2978" />
			</g>
		</g>
		<g
   id="g2988">
			<g
   id="g2986">
				<path
   class="st4"
   d="m 668,967 c 5.9,2.4 12,5 16.6,9.6 2.1,2.1 4.7,5.3 5.3,8.3 1.5,8.3 -4.7,3 -7,2 -6.3,-2.8 -18.8,-0.8 -22.4,5.6 -0.9,1.7 1.7,3.2 2.6,1.5 1.9,-3.5 7.1,-4.4 10.7,-4.9 2.2,-0.3 4.7,-0.5 6.8,0.1 2.4,0.7 3.9,2.8 6.2,3.5 3.3,1 5.8,-1.3 6.3,-4.5 0.9,-5.2 -3.6,-11 -7.1,-14.4 -4.9,-4.7 -11.2,-7.3 -17.4,-9.8 -1.6,-0.6 -2.3,2.3 -0.6,3 z"
   id="path2984" />
			</g>
		</g>
		<path
   class="st6"
   d="m 647.8,656.8 c -11.5,0.7 -18.4,30.1 -22.2,46.4 -4.3,18.3 -8.2,43.5 -7.4,80.2 0.7,32.8 4.9,57.8 6.3,66.5 6.3,37.4 16.2,68.8 25.9,93.4 3.2,9 6.3,18 9.5,26.9 -1.8,7.4 -3.6,15 -5.3,22.9 -2.2,10.4 -4.2,20.6 -5.8,30.4 1.9,0.2 4.5,0.1 6.3,-1.7 2.3,-2.3 2,-6 2.1,-9.2 0.1,-3 0.4,-17.5 6.9,-22.9 4,-3.3 10.4,-3.3 14.8,-1.7 4.5,1.7 6.5,5 9.5,4 2.3,-0.7 3.9,-3.5 4.2,-5.7 1,-7.3 -13,-14.8 -15.3,-16 -4.5,-2.4 -6.6,-2.7 -9.5,-5.7 -3.6,-3.8 -4.8,-8.3 -5.3,-10.3 -8.3,-31.6 -12.4,-29.6 -18,-65.9 -4.2,-27.4 -1.5,-25.8 -5.8,-47.6 -3,-15.4 -5.5,-21.7 -6.3,-35 -0.9,-14.6 0.8,-26 2.6,-36.1 7.5,-41.3 21.9,-91.3 25.4,-103.2 -3.2,-5 -7.6,-10 -12.6,-9.7 z"
   id="path2990" />
	</g>
	<g
   id="hand_left">
		<path
   class="st3"
   d="m 851.9,245.7 c -3.1,-0.1 -5.5,5.5 -6.1,7 -0.9,2.2 -2.3,6.5 -1.3,12.6 0,0 0.6,4.2 2.6,29.6 0.5,5.7 0.6,14 -0.9,24.4 -4,11 -7.8,19.6 -10.4,25.2 -8.8,18.8 -14.7,26.3 -27,50.1 -4.6,8.9 -5,10.3 -10.4,21.3 -13.5,27.3 -23.4,44.4 -33.5,62.7 -8.9,16 -21.4,39.5 -36.1,69.7 -0.7,2.6 -4.2,16.5 3.9,28.7 8.6,12.9 26.6,18.7 44,13.1 2.7,-3.8 6.5,-9.7 10,-17.4 3.4,-7.5 5,-13.3 6.1,-17 1.1,-3.7 5.5,-16.2 14.4,-41.4 2.8,-7.8 6.2,-17.1 13.1,-35.3 10.5,-27.9 15.7,-41.8 19.2,-50.5 7.9,-19.8 13.9,-33.5 25.7,-60.1 6.2,-14 13.8,-30.9 22.6,-50.1 5.1,-2.9 12.1,-7.4 19.6,-13.9 10.8,-9.3 16.2,-17.2 26.6,-32.2 6.7,-9.8 11.8,-18.4 10.4,-27 -0.2,-1.2 -0.7,-4.7 -2.6,-5.2 -2.4,-0.7 -5.4,4.1 -8.7,8.3 -3.4,4.3 -8.5,9.9 -16.1,15.7 2.6,-7.2 5.2,-12.8 7,-16.5 4.1,-8.4 7.5,-13.8 9.6,-23.1 2.3,-9.9 0.2,-11.7 -0.4,-12.2 -2.7,-2 -7.3,1.8 -10,-0.4 -2.4,-2.1 -0.3,-6.7 -2.2,-7.8 -1.9,-1.1 -6.1,2.2 -9.1,5.7 -5.2,6 -6.4,11.8 -8.3,17.4 -1.8,5.5 -5.1,13 -11.3,21.3 -1.5,0.2 -3.5,0.3 -4.4,-0.9 -1,-1.4 0.4,-3.7 1.7,-7.4 0.3,-0.9 0.1,-0.4 2.2,-9.6 0.8,-3.5 2.3,-10 3.5,-15.2 1.7,-7.5 2.5,-10.6 0.9,-13.9 -0.3,-0.7 -1.6,-3.4 -3.5,-3.5 -2.2,-0.1 -3.9,3.4 -5.2,6.1 -5.3,10.9 -8,16.4 -8.7,18.3 -3.5,9.5 -8.2,24 -8.9,29 -0.1,0.6 -0.3,2.7 -1.3,5.4 -0.5,1.3 -0.8,1.8 -1.1,2.6 -2.5,5.6 -0.4,9.3 -3,11.3 -0.3,0.2 -1.8,1.3 -3,0.9 -1.3,-0.4 -1.9,-2.1 -2.6,-7.8 -1,-7.8 -0.4,-10.1 -2.2,-13.5 -1.2,-1.5 -2.7,-4.4 -4.8,-4.5 z"
   id="path2993" />
		<g
   id="g2999">
			<g
   id="g2997">
				<path
   class="st4"
   d="m 847.1,292 c 0.7,-7.3 -0.4,-14.4 -0.8,-21.7 -0.2,-3.5 -0.2,-7.1 0.3,-10.6 0.3,-2 0.7,-4 1.3,-5.9 1,-2.9 1.1,-5.3 4.3,-5.4 3,-0.1 2.8,1.7 3.3,4.2 0.5,2.2 0.6,4.5 0.7,6.7 0.2,3.1 0.3,6.3 1,9.3 0.7,3.1 2.6,5.7 6.1,4.6 1.8,-0.6 1.1,-3.5 -0.8,-2.9 -3.5,1 -3.2,-10.8 -3.4,-12.8 -0.3,-3.2 -0.6,-6.5 -1.8,-9.5 -1.7,-4.2 -5.6,-6.3 -8.9,-2.4 -4.3,5 -5.2,14 -5.2,20.2 0,8.8 1.7,17.4 0.9,26.2 -0.1,1.9 2.9,1.9 3,0 z"
   id="path2995" />
			</g>
		</g>
		<g
   id="g3005">
			<g
   id="g3003">
				<path
   class="st4"
   d="m 864.5,272 c 5,-9.7 6.5,-20.7 9.4,-31.1 3.1,-11.2 7,-22.2 12.8,-32.2 1.3,-2.2 2.6,-5.3 4.5,-7 3.7,-3.4 3.7,3.1 3.4,5.9 -0.6,6.2 -2.2,12.5 -3.6,18.6 -1.3,5.6 -3.1,11 -4.4,16.6 -0.7,3.1 -0.7,5.8 1.5,8.2 1.3,1.4 3.4,-0.7 2.1,-2.1 -2.5,-2.7 0.1,-8.1 0.9,-11 0.9,-3.3 1.8,-6.6 2.5,-9.9 1.4,-6.1 2.8,-12.3 3.7,-18.6 0.5,-3.3 1.2,-9.1 -1.7,-11.6 -2.5,-2.1 -5,-0.1 -6.7,1.9 -7.3,9.1 -11.8,21.1 -15.4,32.1 -4.1,12.7 -5.4,26.9 -11.6,38.8 -0.9,1.6 1.7,3.1 2.6,1.4 z"
   id="path3001" />
			</g>
		</g>
		<g
   id="g3011">
			<g
   id="g3009">
				<path
   class="st4"
   d="m 888.8,251.3 c 3,0.3 4.1,-1.9 5.5,-4.3 2.2,-3.8 4.2,-7.8 6.1,-11.7 3.7,-7.6 6.3,-15.9 10.8,-23 1,-1.6 2.2,-3.6 3.8,-4.8 1.3,-1.5 3,-2 5.2,-1.3 0.3,1.4 0.5,2.8 0.5,4.2 0.1,4.9 -1.5,9.8 -3.2,14.4 -3.4,9.1 -7.2,18.1 -10.9,27.2 -0.7,1.8 2.2,2.6 2.9,0.8 2.1,-5.2 23.7,-50.8 9.6,-51.1 -2.8,-0.1 -6,3.4 -7.6,5.3 -2.8,3.3 -4.8,7.1 -6.6,11 -2.1,4.7 -4,9.4 -6.2,14 -1.3,2.8 -2.8,5.7 -4.2,8.4 -0.9,1.8 -3.1,8 -5.6,7.8 -2,-0.1 -2,2.9 -0.1,3.1 z"
   id="path3007" />
			</g>
		</g>
		<g
   id="g3017">
			<g
   id="g3015">
				<path
   class="st4"
   d="m 924.2,214.5 c 1.1,-5.8 7.4,-1.8 8.2,1.9 0.7,3.1 -0.5,6.2 -1.5,9.1 -1.5,4.4 -3.2,8.7 -5,12.9 -3.5,8.2 -7.6,16 -12.2,23.7 -1,1.7 1.6,3.2 2.6,1.5 4.3,-7.1 8.1,-14.5 11.5,-22 2.9,-6.5 6.4,-13.7 7.5,-20.8 0.7,-4.5 -0.6,-10.3 -5.6,-11.9 -3.7,-1.2 -7.7,1.1 -8.4,4.9 -0.3,1.8 2.6,2.6 2.9,0.7 z"
   id="path3013" />
			</g>
		</g>
		<g
   id="g3023">
			<g
   id="g3021">
				<path
   class="st4"
   d="m 918.4,264.8 c 3.8,-4.3 7.5,-8.6 11.3,-12.9 2,-2.3 3.8,-4.8 6,-6.8 0.7,-0.6 1.4,-1.1 2,-1.7 1.7,0.6 3.4,1.2 5.2,1.8 0.5,0.9 -0.7,3.5 -1,4.3 -3.1,9.5 -7.6,18.5 -12.9,26.9 -10.7,16.9 -25.4,31.1 -42.6,41.4 -1.7,1 -0.1,3.6 1.5,2.6 21.4,-12.8 39,-31.6 50.1,-53.9 2.7,-5.4 5.3,-11.1 7,-16.9 1,-3.4 1.6,-8 -2.3,-9.8 -3.8,-1.8 -7.8,1.7 -10.2,4.2 -5.7,5.9 -10.9,12.5 -16.3,18.7 -1.2,1.4 0.9,3.5 2.2,2.1 z"
   id="path3019" />
			</g>
		</g>
		<g
   id="g3029">
			<g
   id="g3027">
				<path
   class="st4"
   d="m 844.5,288.9 c 0.7,9.2 1.4,18.6 -0.1,27.8 -1.5,9.1 -5.3,17.5 -9.5,25.7 -8.5,16.6 -17.4,33 -26.1,49.5 -17.4,33 -34.8,65.9 -52.2,98.9 -10,18.9 -20,37.9 -30,56.8 -0.9,1.7 1.7,3.2 2.6,1.5 35.9,-68.1 72.5,-135.9 107.8,-204.4 4.2,-8.1 8.1,-16.4 9.8,-25.3 2,-10.1 1.3,-20.3 0.5,-30.5 0.1,-1.9 -2.9,-1.9 -2.8,0 z"
   id="path3025" />
			</g>
		</g>
		<g
   id="g3035">
			<g
   id="g3033">
				<path
   class="st4"
   d="m 886.2,317.1 c -32,67.6 -59.9,136.8 -84.5,207.4 -7.2,20.5 -14.4,41 -23.1,60.9 -0.8,1.8 1.8,3.3 2.6,1.5 14.9,-33.9 25.8,-69.4 38.6,-104 13.1,-35.6 27.3,-70.9 42.4,-105.7 8.6,-19.7 17.4,-39.2 26.6,-58.6 0.8,-1.7 -1.8,-3.2 -2.6,-1.5 z"
   id="path3031" />
			</g>
		</g>
		<path
   class="st10"
   d="m 931.4,213.3 c -4.1,-0.6 -9.6,16.2 -12.8,24.6 -9.7,25.8 -17.9,28.8 -38.7,63.8 -7.7,12.9 -18.3,32.3 -29,57.6 -32,67.4 -63.9,134.9 -95.9,202.3 7.8,9.5 15.5,19.1 23.3,28.6 3.9,-11.1 9.6,-27.4 16.7,-47.1 12.9,-35.5 29.6,-81.2 53.2,-136.8 9.4,-22 22.4,-51.7 39.1,-86.6 4.6,-2.9 11,-7.4 18,-13.6 9.4,-8.2 21.8,-19.3 30.3,-37.4 2.7,-5.6 6.1,-14.2 7.9,-25.5 -1.3,-0.6 -3.2,-1.3 -5.3,-0.9 -3.6,0.7 -5.5,4.2 -7,6.6 -5.8,8.9 -14.3,14.8 -15.4,14.1 -0.6,-0.5 1.1,-3.4 5.7,-12.8 9.4,-19.3 5.5,-14.2 9.2,-20.7 2.1,-3.7 4.2,-6.9 3.5,-11 0,-1.8 -1.1,-4.9 -2.8,-5.2 z"
   id="path3037" />
		<path
   class="st6"
   d="m 925.3,281.5 c -5,3.2 -12.1,7.9 -20.2,14.1 -9.3,7 -19.3,14.6 -27.7,24.2 -11.4,13 -16.4,25.9 -19.4,33.4 -27.5,70.2 -60.2,146.4 -69.5,167.6 -5.1,11.6 -13.1,29.1 -23.7,50.1 4.8,6.3 9.7,12.6 14.5,18.9 13.8,-42.1 29.7,-86.2 47.9,-131.9 19.6,-49.1 39.9,-95 60.3,-137.7 5.5,-3.7 11.7,-8.4 18,-14.5 8.9,-8.5 15.3,-17.1 19.8,-24.2 z"
   id="path3039" />
	</g>
	<g
   id="torso">
		<path
   class="st3"
   d="m 659.4,571 c -3.7,2.5 -12,8.3 -20.5,17.7 -8.8,9.7 -13.9,18.8 -18.1,26.5 -3.3,5.9 -5.7,11.1 -7.4,14.9 2.6,5 6.8,12.7 12.6,21.9 10.3,16.3 18.3,25.1 32.1,42.8 5.8,7.4 14.2,18.5 24.2,32.5 1.6,7.5 3,15.4 4.2,23.7 2.4,17 3.3,32.8 3.3,47 3.7,4 10.1,9.8 19.5,13.9 15.6,6.9 29.8,4.9 37.2,3.7 16.4,-2.5 27.6,-9.8 35.3,-14.9 14,-9.2 23.5,-20.2 29.8,-29.3 -1.3,-15.6 -3,-31.7 -5.1,-48.4 -1.8,-14.2 -3.8,-28 -6,-41.4 -0.2,-10.5 -1.2,-24.8 -4.6,-41.4 -2.8,-13.9 -6.2,-30.1 -16.3,-49.3 -12.6,-23.9 -28.3,-38.4 -34.4,-43.7 -5.4,-4.7 -10.3,-8.2 -13.9,-10.7 -14.6,9.3 -27.2,15.1 -35.8,18.6 -16,6.6 -23.5,7.6 -36.1,15.9 z"
   id="path3042" />
		<g
   id="g3048">
			<g
   id="g3046">
				<path
   class="st4"
   d="m 615,630.5 c 3.1,-11.8 11.7,-22.8 19.1,-32.4 7.8,-10 16.6,-19.1 27.1,-26.4 1.6,-1.1 0.1,-3.7 -1.5,-2.6 -10.8,7.5 -19.9,16.8 -27.9,27.1 -7.7,9.9 -16.4,21.1 -19.6,33.4 -0.5,2 2.4,2.7 2.8,0.9 z"
   id="path3044" />
			</g>
		</g>
		<g
   id="g3054">
			<g
   id="g3052">
				<path
   class="st4"
   d="m 612.8,631.5 c 20.6,36 45,69.8 72.7,100.7 1.3,1.4 3.4,-0.7 2.1,-2.1 -27.5,-30.7 -51.7,-64.3 -72.2,-100.1 -1,-1.7 -3.6,-0.2 -2.6,1.5 z"
   id="path3050" />
			</g>
		</g>
		<g
   id="g3060">
			<g
   id="g3058">
				<path
   class="st4"
   d="m 697.4,556.5 c 11.2,-7.9 23.5,-13.8 36.6,-17.6 1.9,-0.5 1.1,-3.4 -0.8,-2.9 -13.4,3.9 -25.9,9.9 -37.3,17.9 -1.6,1.1 -0.1,3.7 1.5,2.6 z"
   id="path3056" />
			</g>
		</g>
		<g
   id="g3066">
			<g
   id="g3064">
				<path
   class="st4"
   d="m 731.5,539.7 c 47.8,33.3 68.3,91.7 66,148.2 -0.1,1.9 2.9,1.9 3,0 2.4,-57.7 -18.8,-116.9 -67.5,-150.8 -1.5,-1.1 -3,1.5 -1.5,2.6 z"
   id="path3062" />
			</g>
		</g>
		<g
   id="g3072">
			<g
   id="g3070">
				<path
   class="st4"
   d="m 679,726.3 c 5.2,10.7 5.8,24 6.9,35.6 1.2,11.8 1.6,23.7 1.6,35.6 0,1.9 3,1.9 3,0 0.1,-13.2 -0.5,-26.4 -2,-39.5 -1.2,-11.1 -2,-23.1 -6.9,-33.3 -0.9,-1.7 -3.4,-0.2 -2.6,1.6 z"
   id="path3068" />
			</g>
		</g>
		<g
   id="g3078">
			<g
   id="g3076">
				<path
   class="st4"
   d="m 689.4,798.1 c 15,18.4 40.6,23.6 62.9,17.9 12.4,-3.2 23.9,-9.3 34.2,-16.9 10.3,-7.6 20.1,-16.4 25.9,-28 0.9,-1.7 -1.7,-3.2 -2.6,-1.5 -5.6,11.1 -15,19.6 -24.9,26.9 -9.6,7.1 -20.3,12.9 -31.9,16.2 -21.8,6.1 -46.9,1.4 -61.6,-16.7 -1.1,-1.5 -3.2,0.6 -2,2.1 z"
   id="path3074" />
			</g>
		</g>
		<g
   id="g3084">
			<g
   id="g3082">
				<path
   class="st4"
   d="m 798.6,683.4 c 4.9,29.3 9.7,58.6 11.4,88.2 0.1,1.9 3.1,1.9 3,0 -1.8,-29.9 -6.6,-59.5 -11.5,-89 -0.3,-1.9 -3.2,-1.1 -2.9,0.8 z"
   id="path3080" />
			</g>
		</g>
		<path
   class="st6"
   d="m 701.2,552.5 c 11.1,13.1 26.3,33.5 39,61.1 18.6,40.4 22.3,75.3 25.1,105 2.2,22.6 3.4,54.1 -1,91.7 8.5,-3.7 20.5,-10.1 32.1,-21.2 6.4,-6.2 11.2,-12.4 14.8,-17.8 -3.3,-27.9 -6.6,-55.9 -9.9,-83.8 0.6,-23 -3,-41.6 -6.4,-54.2 -10.5,-39 -30.7,-64.1 -37.5,-72 -9.3,-10.9 -18.4,-18.9 -25.1,-24.2 -10.4,5.2 -20.7,10.3 -31.1,15.4 z"
   id="path3086" />
		<path
   class="st11"
   d="m 775.7,587.5 c -1.8,0.5 2.4,16.8 6.4,40.9 0,0 6.1,36.6 7.4,72 0.9,23.4 -0.3,57.6 -10.8,100.1 4.8,-2.4 10.7,-5.9 16.8,-10.8 7.4,-6 12.7,-12.3 16.3,-17.3 -1.3,-40.3 -4.7,-61.2 -7.9,-73 -0.6,-2.3 -2.2,-7.7 -3.5,-15.3 -2.4,-14.2 -1.2,-20.3 -2.5,-32.1 -1,-9.4 -2.9,-15.6 -6.4,-27.1 -5.3,-17.3 -13.8,-38 -15.8,-37.4 z"
   id="path3088" />
	</g>
	<g
   id="head">
		<path
   class="st1"
   d="m 658,406.5 c -6.6,3.7 -15,9.3 -23.1,17.8 -16.8,17.9 -22.2,37.9 -24.1,47.8 -1.5,-0.2 -5.6,-0.5 -8.9,2.1 -4.9,3.8 -5,11.3 -3.1,15.7 0.7,1.6 1.7,2.9 3.8,5.5 2.5,3.1 4.1,5 6.7,6.1 1.1,0.5 3.6,1.2 7.2,0.4 1.1,3.3 2.9,7.9 5.6,13.2 3.5,6.8 8.8,16.9 19.4,25.7 3.1,2.6 7.9,6 14.4,9.1 2.4,3.1 6.8,9.6 7.3,18.4 1,15.5 -10.3,28.4 -21,34.1 -18.6,9.9 -38.8,0 -46.2,-3.7 -4,-2 -24.1,-12.4 -32.5,-35.2 -10.2,-27.5 3.1,-55 11,-71.4 8,-16.5 11.7,-15.4 17.8,-31.5 8.1,-21.3 3.8,-28.8 13.1,-45.1 3.6,-6.4 10.9,-19.2 26.2,-25.2 13.1,-5.1 25.2,-2.5 30.4,-1 4.3,-2.6 11.9,-6.3 21.5,-6.3 22.8,0 37.4,21.6 40.9,26.8 10.4,15.3 4.9,20 14.2,41.5 11.7,27.1 23.1,25.5 33.6,50.9 5.1,12.4 13.6,32.9 4.2,52.5 -9.7,20.2 -31.8,26.1 -34.6,26.8 -5.1,1.3 -18.8,4.7 -32.5,-2.6 -1.3,-0.7 -18.5,-10.1 -19.9,-26.2 -0.5,-5.9 1.2,-11.4 1.6,-12.6 2.1,-6.5 5.7,-10.7 6.8,-12.1 4.3,-5.3 9.5,-15.1 13.1,-34.6 1.7,-0.1 4.5,-0.5 7.3,-2.1 5.9,-3.4 8.7,-10.3 8.4,-16.3 -0.1,-1.4 -0.5,-9.4 -6.3,-12.1 -2.4,-1.1 -4.9,-0.8 -6.3,-0.5 -18.6,-18.8 -37.3,-37.3 -56,-55.9 z"
   id="path3091"
   style="fill:#6f81b3;fill-opacity:1" />
		<path
   class="st3"
   d="m 658,406.4 c -11.1,6.5 -18.8,13.7 -23.7,19 -16.3,17.7 -21.5,36.2 -22.6,40.5 -0.7,2.7 -1.2,4.9 -1.4,6.5 -1.1,-0.4 -3.6,-1.1 -6.1,0 -3.8,1.7 -4.6,6.3 -5,8.6 -1,5.3 1,9.5 1.8,11.1 1.1,2.3 2.9,6 7.2,7.9 3.5,1.6 6.8,1 8.2,0.7 1.4,3.6 3.4,8.6 6.5,14.3 4.7,9 9.1,17.3 17.6,24.7 3.3,2.9 8.7,6.9 16.5,10 1.6,2.5 3.8,6.4 5,11.5 1,4 1.2,7.4 1.1,10 2.6,1.3 7.5,3.3 13.6,3.2 11.7,-0.2 19.4,-7.5 21.2,-9.3 -1.9,-5.7 -3.6,-12.7 -4.3,-20.8 -0.3,-3.7 -0.4,-7.2 -0.4,-10.4 3.1,-3.3 6.9,-8 10,-14.3 5.5,-10.9 6.4,-21 6.5,-26.9 1.4,0.2 4.2,0.5 7.2,-0.7 4.2,-1.7 6.1,-5.4 7.2,-7.5 0.3,-0.5 4.5,-9.1 0.7,-17.6 -0.9,-1.9 -2.4,-5.4 -5.4,-5.7 -2.2,-0.2 -4,1.5 -4.7,2.2 -4.1,-4.9 -11.8,-14 -22.6,-26.5 -9.3,-10.9 -15.2,-17.7 -25.1,-24.7 -3.6,-2.6 -6.8,-4.5 -9,-5.8 z"
   id="path3093" />
		<path
   d="m 644.2,512.5 c -1,2.3 3.7,6.4 5.9,8.1 4.6,3.4 9.5,3.9 11.3,4 2.1,0.2 9,0.7 15.3,-3.8 1.5,-1.1 5.7,-4 7.3,-9.4 1.1,-3.9 0.8,-9.3 -1.3,-10.2 -1.6,-0.6 -3.1,1.4 -6.5,3.8 -6,4.1 -12.2,5.1 -17.5,5.9 -9,1.4 -13.5,-0.4 -14.5,1.6 z"
   id="path3095" />
		<g
   id="g3101">
			<g
   id="g3099">
				<path
   class="st4"
   d="m 612.5,489.4 c 3.6,15 9.4,29.7 19,41.9 8.5,10.9 21.1,21.4 35.8,20 13.6,-1.3 24.7,-11.9 31.9,-22.7 8.5,-12.6 12.6,-27.7 12.2,-42.9 -0.1,-1.9 -3.1,-1.9 -3,0 0.4,13.9 -3.2,27.5 -10.5,39.3 -6.9,11.1 -18.3,22.8 -32.2,23.4 -14.7,0.6 -26.8,-11.4 -34.6,-22.6 -7.8,-11.2 -12.6,-24.1 -15.8,-37.3 -0.4,-1.8 -3.3,-1 -2.8,0.9 z"
   id="path3097" />
			</g>
		</g>
		<g
   id="g3107">
			<g
   id="g3105">
				<path
   class="st4"
   d="m 655,549.9 c 4.2,6.4 6.3,13.4 6.3,21.1 0,1.9 3,1.9 3,0 0,-8.1 -2.3,-15.8 -6.7,-22.6 -1,-1.7 -3.6,-0.2 -2.6,1.5 z"
   id="path3103" />
			</g>
		</g>
		<g
   id="g3113">
			<g
   id="g3111">
				<path
   class="st4"
   d="m 662.7,572.2 c 12.2,7 28,3.6 36.3,-7.6 1.2,-1.5 -1.4,-3 -2.6,-1.5 -7.4,9.9 -21.6,12.7 -32.2,6.5 -1.7,-0.9 -3.2,1.7 -1.5,2.6 z"
   id="path3109" />
			</g>
		</g>
		<g
   id="g3119">
			<g
   id="g3117">
				<path
   class="st4"
   d="m 691.5,536.5 c 0.1,9.1 1.5,18.1 4.4,26.8 0.6,1.8 3.5,1 2.9,-0.8 -2.7,-8.5 -4.2,-17.1 -4.3,-26 0,-2 -3,-2 -3,0 z"
   id="path3115" />
			</g>
		</g>
		<g
   id="g3125">
			<g
   id="g3123">
				<path
   class="st4"
   d="m 615.5,498.9 c -1.3,1.4 -4.5,0.9 -6,0.1 -1.2,-0.6 -2.3,-1.5 -3.2,-2.4 -2,-1.9 -3.6,-4.2 -4.6,-6.7 -2,-4.7 -2.9,-18.2 6,-15.8 1.9,0.5 2.7,-2.4 0.8,-2.9 -11,-2.9 -12.7,11.7 -9.9,19 2.2,5.9 12.3,18.1 19.1,10.8 1.2,-1.4 -0.9,-3.5 -2.2,-2.1 z"
   id="path3121" />
			</g>
		</g>
		<g
   id="g3131">
			<g
   id="g3129">
				<path
   class="st4"
   d="m 716,463.9 c 1.2,-4 6.4,3.7 7,5.1 1.2,3.2 1.6,6.7 1.1,10.1 -0.8,6.8 -6.2,13.3 -13.7,11.4 -1.9,-0.5 -2.7,2.4 -0.8,2.9 12.1,3.1 18.6,-9.5 17.5,-19.8 -0.5,-4.5 -2.3,-10.3 -6.6,-12.7 -2.8,-1.5 -6.4,-1.1 -7.4,2.1 -0.6,2 2.3,2.7 2.9,0.9 z"
   id="path3127" />
			</g>
		</g>
		<g
   id="g3137">
			<g
   id="g3135">
				<path
   class="st4"
   d="m 626.2,442.7 c 3.3,-6.3 9.1,-10.4 16.1,-11.4 1.9,-0.3 1.1,-3.2 -0.8,-2.9 -7.7,1.1 -14.3,5.9 -17.9,12.8 -0.9,1.7 1.7,3.2 2.6,1.5 z"
   id="path3133" />
			</g>
		</g>
		<g
   id="g3143">
			<g
   id="g3141">
				<path
   class="st4"
   d="m 672.4,427.3 c 8.4,-2 16.8,2.2 20.6,9.8 0.9,1.7 3.4,0.2 2.6,-1.5 -4.4,-8.9 -14.4,-13.5 -24,-11.2 -1.9,0.5 -1.1,3.4 0.8,2.9 z"
   id="path3139" />
			</g>
		</g>
		<g
   id="g3149">
			<g
   id="g3147">
				<path
   class="st4"
   d="m 650.6,439.6 c 1.9,10.6 2.4,21.5 1.3,32.3 -0.4,3.3 -2,8 -0.5,11.3 1.6,3.6 5.9,6.7 8.6,9.5 1.3,1.4 3.5,-0.7 2.1,-2.1 -1.8,-1.9 -3.6,-3.7 -5.4,-5.6 -2.8,-2.9 -3.1,-3.8 -2.5,-8 0.5,-3.8 1,-7.7 1.2,-11.6 0.4,-8.9 -0.3,-17.8 -1.9,-26.5 -0.3,-2 -3.2,-1.2 -2.9,0.7 z"
   id="path3145" />
			</g>
		</g>
		<g
   id="g3155">
			<g
   id="g3153">
				<path
   class="st4"
   d="m 638,465.3 c -1.5,-2.4 -2.2,-5 -2,-7.8 0,-0.6 0.4,-3.2 0.9,-3.3 0.3,0 0.8,3.5 0.9,3.9 0.2,1.3 0.3,2.7 0.3,4 0,0.4 -0.1,3.7 -0.1,1.7 -0.1,-2.9 0.1,-5.8 0.2,-8.7 -1,0.1 -2,0.3 -2.9,0.4 0.5,3.1 0.8,6.2 0.8,9.4 1,0 2,0 3,0 0,-0.4 0,-0.8 0,-1.2 0,-1.9 -3,-1.9 -3,0 0,0.4 0,0.8 0,1.2 0,1.9 3,1.9 3,0 0,-3.4 -0.3,-6.8 -0.9,-10.2 -0.3,-1.7 -2.9,-1.2 -2.9,0.4 -0.1,3.2 -0.5,6.7 -0.1,9.9 0.2,1.5 0.9,2.9 2.6,3.2 5,1 3.5,-8.8 3.1,-11.2 -0.3,-1.9 -0.6,-4.8 -2.4,-5.9 -1.5,-0.9 -3.1,0 -4,1.4 -2.5,4.2 -1.1,10.4 1.2,14.2 0.7,1.7 3.3,0.2 2.3,-1.4 z"
   id="path3151" />
			</g>
		</g>
		<g
   id="g3161">
			<g
   id="g3159">
				<path
   class="st4"
   d="m 684.2,460 c -1.5,-2.4 -2.2,-5 -2,-7.8 0,-0.6 0.4,-3.2 0.9,-3.3 0.3,0 0.8,3.5 0.9,3.9 0.2,1.3 0.3,2.7 0.3,4 0,0.4 -0.1,3.7 -0.1,1.7 -0.1,-2.9 0.1,-5.8 0.2,-8.7 -1,0.1 -2,0.3 -2.9,0.4 0.5,3.1 0.8,6.2 0.8,9.4 1,0 2,0 3,0 0,-0.4 0,-0.8 0,-1.2 0,-1.9 -3,-1.9 -3,0 0,0.4 0,0.8 0,1.2 0,1.9 3,1.9 3,0 0,-3.4 -0.3,-6.8 -0.9,-10.2 -0.3,-1.7 -2.9,-1.2 -2.9,0.4 -0.1,3.2 -0.5,6.7 -0.1,9.9 0.2,1.5 0.9,2.9 2.6,3.2 5,1 3.5,-8.8 3.1,-11.2 -0.3,-1.9 -0.6,-4.8 -2.4,-5.9 -1.5,-0.9 -3.1,0 -4,1.4 -2.5,4.2 -1.1,10.4 1.2,14.2 0.7,1.8 3.3,0.3 2.3,-1.4 z"
   id="path3157" />
			</g>
		</g>
		<g
   id="g3167">
			<g
   id="g3165">
				<path
   class="st4"
   d="m 623.2,474.5 c 1.9,0 1.9,-3 0,-3 -1.9,0 -1.9,3 0,3 z"
   id="path3163" />
			</g>
		</g>
		<g
   id="g3173">
			<g
   id="g3171">
				<path
   class="st4"
   d="m 635,476.7 c 0.1,0 0.2,0 0.4,0 0.8,0 1.5,-0.7 1.5,-1.5 0,-0.8 -0.7,-1.5 -1.5,-1.5 -0.1,0 -0.2,0 -0.4,0 -0.8,0 -1.5,0.7 -1.5,1.5 0,0.8 0.6,1.5 1.5,1.5 z"
   id="path3169" />
			</g>
		</g>
		<g
   id="g3179">
			<g
   id="g3177">
				<path
   class="st4"
   d="m 628,485.9 c 1.9,0 1.9,-3 0,-3 -1.9,0 -2,3 0,3 z"
   id="path3175" />
			</g>
		</g>
		<g
   id="g3185">
			<g
   id="g3183">
				<path
   class="st4"
   d="m 684.8,473 c 0.1,0 0.2,0 0.4,0 0.8,0 1.5,-0.7 1.5,-1.5 0,-0.8 -0.7,-1.5 -1.5,-1.5 -0.1,0 -0.2,0 -0.4,0 -0.8,0 -1.5,0.7 -1.5,1.5 0,0.8 0.6,1.5 1.5,1.5 z"
   id="path3181" />
			</g>
		</g>
		<g
   id="g3191">
			<g
   id="g3189">
				<path
   class="st4"
   d="m 695.8,465.6 c 1.9,0 1.9,-3 0,-3 -1.9,0 -1.9,3 0,3 z"
   id="path3187" />
			</g>
		</g>
		<g
   id="g3197">
			<g
   id="g3195">
				<path
   class="st4"
   d="m 694.3,473.7 c 0.1,0 0.2,0 0.4,0 0.8,0 1.5,-0.7 1.5,-1.5 0,-0.8 -0.7,-1.5 -1.5,-1.5 -0.1,0 -0.2,0 -0.4,0 -0.8,0 -1.5,0.7 -1.5,1.5 0.1,0.8 0.7,1.5 1.5,1.5 z"
   id="path3193" />
			</g>
		</g>
		<g
   id="g3203">
			<g
   id="g3201">
				<path
   class="st4"
   d="m 646.7,514.8 c -1.6,-2.3 -4.2,-5.6 -3.1,-8.6 1.3,-3.4 5.4,-2.9 8.1,-2.5 3.3,0.5 6,1.1 9.2,0.1 2.6,-0.8 4.9,-2.5 7.3,-3.8 5.7,-3.2 12.4,-3.5 14.2,4 5.1,20.5 -31.1,26.3 -36.7,8.3 -0.6,-1.8 -3.5,-1.1 -2.9,0.8 6.9,22.1 49.7,13.9 42.2,-10.6 -1.3,-4.1 -4.4,-7.6 -8.8,-8.1 -7.2,-0.7 -11.9,6.5 -18.8,7 -5.1,0.4 -11.3,-3.5 -15.4,1.3 -3.7,4.3 -0.7,9.8 2,13.6 1.2,1.6 3.8,0.1 2.7,-1.5 z"
   id="path3199" />
			</g>
		</g>
		<g
   id="g3209">
			<g
   id="g3207">
				<path
   class="st4"
   d="m 640.9,509.1 c 2.2,6.1 13.2,4.2 18,3.5 9.2,-1.4 17.6,-5.4 24.7,-11.3 1.5,-1.2 -0.6,-3.4 -2.1,-2.1 -5.2,4.4 -11.2,7.6 -17.8,9.4 -2.9,0.8 -18.2,4.2 -19.8,-0.2 -0.8,-1.9 -3.7,-1.1 -3,0.7 z"
   id="path3205" />
			</g>
		</g>
		<g
   id="g3215">
			<g
   id="g3213">
				<path
   class="st4"
   d="m 658.7,553 c 11.7,3 27.3,-4.4 33.9,-14.1 1.1,-1.6 -1.5,-3.1 -2.6,-1.5 -5.8,8.5 -20.3,15.3 -30.5,12.7 -1.9,-0.5 -2.7,2.4 -0.8,2.9 z"
   id="path3211" />
			</g>
		</g>
		<g
   id="g3221">
			<g
   id="g3219">
				<path
   class="st4"
   d="m 659.8,553.9 c 10.4,6.5 27.5,-2.7 32.5,-12.6 0.9,-1.7 -1.7,-3.2 -2.6,-1.5 -4.2,8.4 -19.5,17.1 -28.4,11.6 -1.7,-1.1 -3.2,1.5 -1.5,2.5 z"
   id="path3217" />
			</g>
		</g>
		<path
   class="st12"
   d="m 701.3,447.9 c 0.7,3.6 1.6,9.3 2.2,16.2 1.4,18.4 3.8,49.2 -14.8,69.7 -4,4.4 -12.5,12.2 -28.2,16.6 5,-0.2 11.1,-0.8 17.7,-2.5 3.3,-0.8 6.3,-1.8 9,-2.9 0.4,8.9 0.7,17.8 1.1,26.7 3.4,-2.2 6.7,-4.3 10.1,-6.5 -4.6,-10.2 -4.6,-18.1 -4,-23.1 0.9,-7 3.5,-12.7 6.1,-18.4 2.3,-5 4.7,-9 6.6,-11.8 0.2,2.1 0.7,4.3 2.1,6.4 6.1,9.1 25.2,10 37.2,2.2 11.1,-7.2 16.5,-21.8 13.7,-36.8 1.9,1.6 3.9,3.5 5.8,5.8 1.5,1.8 5.4,7 10.8,25.3 1.7,5.7 2.5,8.6 3,11.5 0.6,4 1.7,11.6 -0.4,20.2 -3.6,14.8 -14.3,23.3 -17.5,25.7 -2.3,1.7 -9.3,6.8 -19.8,9.2 -5,1.1 -20,4.7 -34.1,-3.5 -5.3,-3.1 -8.2,-5.4 -9.8,-8.2 -1.7,-3.1 -1.9,-6 -2.1,-8.2 -0.9,-13.7 -1.3,-20.6 -0.4,-25.3 2.7,-13.6 8.8,-15 12.2,-30.5 1.2,-5.6 1.5,-10.3 1.6,-13.3 1.3,0.2 3.3,0.4 5.7,-0.2 5,-1.3 7.5,-5.4 8.4,-6.9 3.6,-5.7 5.2,-15.9 -0.4,-20.6 -0.8,-0.7 -3.6,-2.8 -9,-2.4 -4.1,-4.8 -8.4,-9.6 -12.8,-14.4 z"
   id="path3223" />
		<path
   class="st6"
   d="m 653.9,480.3 c 5.1,1.5 10.3,3.1 15.4,4.6 -1.3,1.2 -2.6,2.3 -4,3.5 -1.3,1.1 -2.5,2 -3.8,3 -1.6,-1.2 -3.9,-3.3 -5.7,-6.5 -1,-1.7 -1.6,-3.3 -1.9,-4.6 z"
   id="path3225" />
		<path
   class="st13"
   d="m 573.7,492.8 c -10.9,38.5 -2.8,69.6 13.5,76.4 12.8,5.3 35.9,-2.2 40.2,-15.3 0.6,-1.7 1.2,-4.7 -1.1,-13.9 -2,-8.1 -6.1,-20.3 -15.3,-34.2 -1.6,-1 -3.7,-2.6 -5.7,-5 -3.5,-4.3 -4.5,-8.9 -4.8,-11.1 2.9,3 7.1,6.8 9.8,5.6 2.6,-1.2 4.2,-4.8 3.3,-8.4 0.9,4.6 2.3,10.9 4.9,18.2 3.4,9.7 6.8,19.1 14.7,28 3.6,4.1 10.7,10.8 22.7,15.6 2,2.5 5.7,7.9 6.9,15.8 0.2,1.2 0.9,6.7 -0.9,13.6 -0.4,1.6 -2.8,10.3 -10.7,17.8 -9.2,8.8 -20.2,10.4 -23.8,10.9 -27.1,3.6 -48.1,-20.1 -51.8,-24.2 -3.7,-4.2 -9.8,-11.2 -13.3,-22 -5.6,-17.2 -1.3,-32.7 1.8,-44 2.9,-10.6 6.8,-18.6 9.6,-23.8 z"
   id="path3227" />
	</g>
</g>
</svg>
